<svg width="268" height="495" viewBox="0 0 268 495" fill="none" xmlns="http://www.w3.org/2000/svg">
<path opacity="0.99" d="M132.11 0.113793C131.818 0.16039 130.818 0.338308 129.886 0.511988C128.954 0.685669 127.62 0.965253 126.921 1.1347C126.222 1.30414 124.411 1.73622 122.897 2.09629C120.798 2.59615 119.537 3.04942 117.601 4.00254C116.204 4.68879 114.155 5.79018 113.048 6.44889C111.94 7.10973 110.32 8.1264 109.447 8.7131C108.572 9.29768 107.191 10.3249 106.376 10.9942C105.56 11.6636 104.368 12.7226 103.726 13.3453C103.084 13.9701 101.892 15.2918 101.076 16.2809C100.263 17.2722 99.204 18.6531 98.7253 19.3521C98.2445 20.0511 97.3062 21.576 96.6391 22.741C95.9697 23.9059 95.2835 25.1937 95.1119 25.6004C94.9425 26.0091 94.629 26.867 94.4172 27.5066C94.2033 28.1463 93.9279 29.0994 93.8051 29.6247C93.6801 30.1499 93.481 31.5076 93.3582 32.6429C93.2374 33.7782 93.1379 35.9471 93.1379 37.4615C93.1379 38.9759 93.2353 41.8586 93.3561 43.8686C93.4768 45.8786 93.6611 48.1894 93.767 49.0049C93.8898 49.9601 93.8813 50.9026 93.7394 51.6524C93.6208 52.2921 93.2925 53.5079 93.0129 54.353C92.7312 55.1981 92.5046 56.3418 92.5046 56.8946C92.5067 57.4474 92.6995 58.8051 92.9325 59.9129C93.1676 61.0206 93.5043 62.7362 93.6844 63.7254C93.9428 65.1656 93.9978 67.0274 93.9555 73.0448C93.911 79.1935 93.9639 80.9303 94.2456 82.5761C94.4342 83.6838 94.7434 85.876 94.934 87.4476C95.1225 89.0192 95.436 91.1648 95.6287 92.2132C95.8215 93.2616 95.9613 94.1915 95.9359 94.2783C95.9104 94.3652 95.9867 94.4372 96.1032 94.4372C96.2197 94.4372 96.4696 95.1764 96.6581 96.0787C96.8445 96.9809 97.2724 98.3873 97.6028 99.2028C97.9353 100.018 98.2721 100.971 98.3483 101.321C98.4246 101.67 98.9604 103.051 99.5387 104.392C100.117 105.733 100.761 107.209 100.97 107.675C101.18 108.141 101.614 109.189 101.934 110.005C102.254 110.82 103.173 112.775 103.974 114.347C104.774 115.918 105.425 117.302 105.421 117.418C105.416 117.535 105.696 118.155 106.043 118.795C106.391 119.434 106.615 120.032 106.543 120.119C106.471 120.205 106.522 120.277 106.657 120.277C106.795 120.277 106.905 120.373 106.905 120.489C106.905 120.606 107.24 121.178 107.647 121.76C108.053 122.343 108.324 122.938 108.248 123.084C108.172 123.23 108.172 123.277 108.248 123.19C108.324 123.103 108.85 123.626 109.415 124.355C109.979 125.083 110.514 125.918 110.603 126.208C110.694 126.5 110.794 127.165 110.828 127.691C110.862 128.216 110.834 128.739 110.766 128.856C110.701 128.972 110.622 129.402 110.595 129.809C110.567 130.215 110.481 130.978 110.4 131.503C110.32 132.028 110.144 132.789 110.008 133.193C109.837 133.71 109.513 134.068 108.917 134.392C108.451 134.646 107.452 135.489 106.693 136.265C105.935 137.042 104.65 138.092 103.834 138.603C103.019 139.111 101.661 139.819 100.816 140.174C99.9707 140.53 98.6851 140.96 97.9565 141.128C97.2279 141.295 95.5843 141.494 94.3028 141.568C93.0214 141.642 91.4964 141.831 90.9139 141.985C90.3315 142.14 89.1877 142.381 88.3723 142.523C87.4975 142.676 86.2394 142.725 85.3011 142.646C84.4263 142.572 82.4735 142.453 80.9591 142.381C78.7478 142.276 77.8731 142.322 76.5112 142.623C74.8612 142.985 74.7807 143.034 73.44 144.428C72.5674 145.334 71.5973 146.088 70.7924 146.488C70.0935 146.836 69.1403 147.236 68.6744 147.38C68.2084 147.524 66.6347 148.077 65.1796 148.606C63.7224 149.136 62.0554 149.888 61.473 150.273C60.8905 150.661 59.6303 151.623 58.675 152.413C57.7177 153.203 56.4108 154.467 55.7712 155.225C55.1209 155.996 54.1254 157.581 53.5091 158.826C52.9054 160.048 52.1323 161.813 51.7935 162.744C51.4546 163.676 50.6073 166.059 49.9084 168.04C49.2115 170.02 48.2055 172.833 47.676 174.288C47.1443 175.745 46.492 177.507 46.2272 178.206C45.9625 178.905 45.4541 180.384 45.0983 181.489C44.7403 182.595 44.3061 184.025 44.1303 184.666C43.9567 185.308 43.622 186.784 43.389 187.949C43.156 189.114 42.8171 192.116 42.635 194.621C42.4507 197.127 42.1161 200.27 41.8894 201.611C41.6628 202.952 41.3345 204.762 41.1608 205.635C40.9871 206.51 40.7033 207.796 40.5275 208.494C40.3538 209.193 39.9387 210.672 39.6062 211.777C39.2758 212.883 38.7293 214.313 38.3925 214.955C38.0558 215.596 37.5834 216.509 37.342 216.988C36.948 217.767 36.8718 217.82 36.5985 217.517C36.4312 217.331 36.2215 216.56 36.1326 215.802C36.0436 215.043 35.8869 214.09 35.7831 213.684C35.6814 213.277 35.4971 212.752 35.3743 212.519C35.2514 212.286 34.6647 211.642 34.0675 211.089C33.4723 210.536 32.8898 210.083 32.7733 210.083C32.6568 210.083 32.2036 209.844 31.7672 209.549C31.3309 209.257 30.3291 208.876 29.5433 208.702C28.7575 208.53 27.6137 208.391 27.0016 208.393C26.3895 208.395 25.0318 208.537 23.9834 208.708C22.935 208.882 21.7192 209.022 21.2829 209.024C20.5288 209.024 20.4632 208.967 19.9866 207.912C19.7092 207.3 19.2898 206.086 19.0504 205.211C18.8132 204.339 18.5019 202.67 18.3578 201.505C18.1524 199.836 18.1503 198.758 18.3536 196.422C18.4934 194.791 18.612 192.168 18.6184 190.597C18.6268 188.081 18.5527 187.458 18.0041 185.408C17.661 184.126 17.0891 182.506 16.7333 181.807C16.3775 181.108 15.956 180.297 15.7992 180.005C15.6404 179.712 15.1786 179.015 14.7699 178.456C14.3611 177.897 13.6706 177.158 13.2343 176.817C12.7979 176.474 11.9634 176.003 11.381 175.771C10.7985 175.538 9.94069 175.347 9.47471 175.347C9.00874 175.347 8.24624 175.538 7.78027 175.771C7.3143 176.003 6.86739 176.313 6.78902 176.459C6.70853 176.605 6.57298 177.058 6.48825 177.465C6.40353 177.872 6.42048 178.825 6.52214 179.583C6.62593 180.341 6.90763 182.389 7.14697 184.137C7.38631 185.884 7.72096 188.458 7.89041 189.856C8.06197 191.253 8.20176 193.492 8.20176 194.833C8.20176 196.174 8.10857 198.317 7.99419 199.599C7.8777 200.88 7.64048 202.596 7.46891 203.411C7.29523 204.227 7.00294 205.61 6.81867 206.482C6.58781 207.565 6.50308 208.852 6.54756 210.519L6.61534 212.968C5.28096 214.59 4.51423 215.632 4.05037 216.331C3.5844 217.03 3.05065 218.079 2.86214 218.661C2.61645 219.428 2.48301 220.98 2.38347 224.274C2.29874 227.017 2.12718 229.292 1.94926 229.993C1.78617 230.635 1.50235 231.681 1.3202 232.323C1.13805 232.964 0.849992 234.487 0.680547 235.711C0.508985 236.936 0.267526 238.603 0.140442 239.418C-0.00570346 240.361 -0.0395896 242.407 0.0472506 245.031C0.125619 247.39 0.316243 249.705 0.489923 250.432C0.65725 251.131 0.905062 252.084 1.04274 252.55C1.17829 253.016 1.59979 254.16 1.9768 255.092C2.35593 256.024 2.89603 257.216 3.17985 257.739C3.55475 258.436 3.76444 259.321 3.95294 261.022C4.09697 262.304 4.35326 263.971 4.5227 264.729C4.69214 265.487 5.05222 266.773 5.32544 267.588C5.59867 268.404 6.5285 270.501 7.39266 272.248C8.25895 273.995 9.61662 276.664 10.413 278.178C11.2094 279.693 12.4379 281.885 13.1432 283.05C13.8485 284.215 15.0982 286.07 15.9221 287.172C16.7439 288.273 18.1799 289.94 19.1119 290.878C20.0459 291.815 21.5709 293.153 22.5008 293.852C23.4327 294.551 24.8391 295.672 25.6249 296.341C26.4107 297.01 27.3638 297.718 27.7429 297.91C28.1221 298.103 29.2404 298.484 30.2317 298.758C31.2229 299.031 32.5319 299.253 33.144 299.253C33.7561 299.253 34.9464 299.022 35.7916 298.741C36.6367 298.459 38.0663 298.029 38.9686 297.787C39.8709 297.546 41.2053 297.046 41.9339 296.678C42.6625 296.309 43.6622 295.737 44.1579 295.407C44.6535 295.076 45.058 294.852 45.058 294.911C45.058 294.97 45.272 294.782 45.5346 294.496C45.7972 294.21 46.1298 293.971 46.2759 293.966C46.4221 293.962 46.5407 293.863 46.5407 293.746C46.5407 293.63 46.636 293.581 46.7525 293.64C46.869 293.7 46.9643 293.651 46.9643 293.534C46.9643 293.418 47.1083 293.323 47.282 293.323C47.5171 293.323 47.6357 293.67 47.7353 294.646C47.8094 295.375 47.928 297.281 48 298.883C48.0699 300.484 48.0572 301.795 47.9704 301.795C47.8835 301.795 47.8094 302.104 47.8073 302.483C47.8052 302.862 47.6675 304.029 47.5002 305.078C47.335 306.126 46.9622 308.795 46.6741 311.008C46.3839 313.222 46.0345 316.032 45.8947 317.257C45.757 318.481 45.4096 320.957 45.1279 322.764C44.8441 324.57 44.4713 327.334 44.2998 328.906C44.1282 330.478 43.8995 332.718 43.7936 333.883C43.6877 335.048 43.4547 337.478 43.2768 339.284C43.0967 341.091 42.8489 345.999 42.7239 350.192C42.599 354.386 42.4105 358.485 42.3025 359.3C42.1944 360.115 41.8238 361.689 41.4743 362.795C41.1269 363.9 40.7012 365.33 40.5275 365.972C40.3538 366.614 40.0277 367.804 39.8032 368.619C39.5765 369.435 39.1974 370.96 38.9602 372.008C38.7229 373.057 38.4307 374.438 38.3099 375.08C38.1892 375.721 37.9456 377.056 37.7656 378.045C37.5877 379.034 37.3441 380.703 37.2255 381.751C37.1069 382.8 37.0094 384.158 37.0094 384.77C37.0094 385.411 36.7468 386.712 36.3888 387.841C36.0478 388.919 35.6623 390.563 35.531 391.494C35.3997 392.426 35.1138 393.951 34.8935 394.883C34.6732 395.815 34.2411 397.863 33.9319 399.437C33.6057 401.1 33.4215 402.608 33.4913 403.038C33.557 403.447 33.9467 404.804 34.3576 406.056C34.7664 407.308 35.1032 408.691 35.1011 409.127C35.0989 409.564 34.7092 411.065 34.2305 412.463C33.754 413.861 33.1821 415.363 32.9618 415.799C32.7416 416.236 32.3582 417.333 32.1104 418.235C31.8626 419.137 31.5872 420.209 31.4983 420.618C31.4093 421.027 31.1784 422.122 30.9857 423.054C30.7951 423.985 30.579 424.843 30.507 424.96C30.435 425.076 30.3905 426.387 30.4096 427.872C30.4371 429.996 30.346 430.969 29.9902 432.426C29.7424 433.445 29.179 435.088 28.7405 436.08C28.3 437.071 27.3363 439.324 26.5971 441.091C25.824 442.94 25.1653 444.242 25.0445 444.162C24.9217 444.079 24.9005 444.132 24.9916 444.287C25.0784 444.433 24.873 445.433 24.5383 446.511C24.2016 447.589 23.7631 449.377 23.5661 450.482C23.367 451.588 23.0684 453.257 22.8989 454.189C22.7316 455.121 22.4775 456.443 22.3355 457.127C22.1936 457.811 22.0051 458.406 21.9183 458.45C21.8314 458.495 21.6641 459.054 21.5476 459.696C21.4205 460.397 21.2087 460.903 21.0181 460.967C20.8444 461.026 20.7555 461.191 20.8211 461.337C20.8889 461.483 20.7936 461.769 20.6093 461.973C20.4272 462.176 20.3255 462.367 20.3848 462.396C20.4441 462.426 20.0544 463.546 19.5206 464.885C18.9848 466.224 18.0761 468.751 17.4979 470.498C16.9197 472.245 16.2588 474.438 16.028 475.369C15.7971 476.301 15.5302 477.78 15.4392 478.652C15.3333 479.635 15.3714 481.412 15.5345 483.312C15.6806 485 15.8776 488.122 15.9729 490.249L16.1466 494.116L214.185 494.114C214.153 492.555 214.089 492.007 214.024 491.89C213.958 491.774 213.844 490.965 213.772 490.09C213.698 489.217 213.598 488.357 213.549 488.184C213.499 488.01 213.412 487.58 213.352 487.231C213.293 486.881 213.143 485.737 213.018 484.689C212.893 483.64 212.66 481.876 212.497 480.771C212.336 479.665 212.145 478.426 212.073 478.017C212.003 477.608 211.8 476.323 211.622 475.158C211.442 473.993 211.26 472.23 211.215 471.239C211.169 470.248 211.084 468.962 211.025 468.38C210.963 467.797 210.862 466.654 210.796 465.838C210.73 465.023 210.542 463.784 210.381 463.085C210.218 462.386 209.695 460.624 209.22 459.166C208.743 457.711 208.33 456.256 208.303 455.936C208.275 455.614 208.208 455.354 208.148 455.356C208.089 455.356 207.833 454.714 207.576 453.926C207.291 453.049 207.022 451.427 206.882 449.741C206.755 448.227 206.625 446.844 206.592 446.67C206.556 446.496 206.426 445.829 206.301 445.187C206.176 444.545 205.967 443.023 205.835 441.798C205.706 440.574 205.613 438.717 205.632 437.668C205.649 436.62 205.594 435.429 205.509 435.021C205.424 434.612 204.944 433.04 204.44 431.526C203.758 429.478 203.463 428.175 203.29 426.442C203.162 425.161 203.004 423.827 202.938 423.477C202.872 423.128 202.548 421.984 202.218 420.935C201.889 419.887 201.515 418.457 201.39 417.758C201.263 417.059 200.953 415.39 200.703 414.052C200.451 412.713 200.233 411.33 200.218 410.981C200.201 410.631 200.104 410.201 199.998 410.027C199.894 409.854 199.767 409.043 199.714 408.227C199.663 407.412 199.74 405.315 199.886 403.567C200.032 401.82 200.142 399.484 200.134 398.378C200.123 397.273 200.059 395.985 199.992 395.519C199.922 395.053 199.763 394.195 199.636 393.613C199.509 393.03 199.259 392.124 199.081 391.6C198.903 391.077 198.685 390.552 198.596 390.435C198.507 390.319 198.39 389.986 198.333 389.694C198.278 389.404 198.113 388.879 197.967 388.529C197.819 388.18 197.687 387.847 197.672 387.788C197.658 387.729 197.486 387.396 197.291 387.047C197.096 386.697 197.005 386.341 197.088 386.257C197.173 386.172 197.13 385.981 196.995 385.833C196.855 385.68 196.719 384.653 196.677 383.446C196.637 382.281 196.51 381.249 196.393 381.152C196.255 381.04 196.274 380.947 196.446 380.887C196.607 380.834 196.662 380.612 196.586 380.322C196.518 380.059 196.41 379.703 196.347 379.527C196.283 379.352 196.188 378.924 196.135 378.574C196.084 378.225 196.02 377.509 195.995 376.986C195.969 376.463 195.978 375.819 196.012 375.556C196.048 375.293 196.147 375.118 196.234 375.162C196.321 375.209 196.351 374.946 196.3 374.58C196.234 374.103 196.281 373.959 196.459 374.073C196.637 374.186 196.711 373.999 196.709 373.438C196.709 373.002 196.768 370.928 196.842 368.831C196.954 365.654 196.916 364.737 196.613 363.324C196.412 362.392 196.058 361.058 195.828 360.359C195.597 359.66 195.328 358.612 195.232 358.029C195.135 357.447 194.923 356.494 194.762 355.911C194.531 355.077 194.154 354.534 192.996 353.35C192.14 352.482 191.327 351.412 191.06 350.809C190.804 350.237 190.319 348.862 189.982 347.757C189.643 346.651 189.249 345.268 189.107 344.685C188.965 344.103 188.794 343.055 188.73 342.356C188.624 341.225 188.688 340.922 189.308 339.602C189.99 338.147 190.005 338.062 190.022 335.048C190.037 332.223 190.001 331.909 189.556 331.13C189.291 330.664 188.601 329.711 188.025 329.012C187.385 328.237 186.892 327.389 186.76 326.841C186.642 326.345 186.548 325.536 186.553 325.04C186.559 324.356 186.731 323.912 187.275 323.187C187.667 322.664 188.239 321.997 188.541 321.705C188.846 321.414 189.092 321.27 189.084 321.387C189.077 321.503 189.408 321.169 189.817 320.646C190.227 320.122 190.85 319.144 191.202 318.475C191.653 317.612 191.761 317.231 191.575 317.168C191.363 317.096 191.363 317.074 191.575 317.062C191.751 317.05 191.789 316.886 191.689 316.568C191.598 316.278 191.617 316.147 191.742 316.229C191.867 316.314 191.945 315.761 191.945 314.808C191.945 313.584 192.028 313.167 192.326 312.87C192.695 312.506 192.739 312.525 193.491 313.351C193.923 313.823 194.536 314.537 194.853 314.939C195.171 315.34 195.434 315.787 195.436 315.933C195.438 316.079 195.582 316.244 195.758 316.303C195.933 316.363 196.029 316.505 195.969 316.621C195.91 316.738 195.967 316.81 196.094 316.78C196.222 316.75 196.438 316.918 196.571 317.151C196.707 317.384 196.912 317.644 197.029 317.729C197.145 317.816 197.168 317.888 197.081 317.888C196.995 317.89 197.422 318.432 198.035 319.093C198.647 319.754 199.409 320.565 199.729 320.893C200.049 321.224 200.265 321.493 200.206 321.493C200.146 321.493 200.619 322.041 201.254 322.711C201.889 323.38 202.351 324.024 202.279 324.14C202.209 324.257 202.237 324.282 202.343 324.198C202.449 324.111 202.756 324.301 203.027 324.621C203.298 324.939 203.743 325.485 204.018 325.835C204.291 326.184 205.643 327.622 207.019 329.031C208.398 330.439 210.718 332.541 212.173 333.697C213.63 334.853 215.536 336.33 216.409 336.976C217.283 337.624 218.595 338.575 219.325 339.09C220.056 339.604 220.651 340.098 220.649 340.185C220.647 340.271 220.787 340.343 220.963 340.343C221.138 340.343 221.399 340.466 221.545 340.619C221.691 340.769 222.621 341.379 223.61 341.974C224.599 342.567 225.745 343.203 226.152 343.385C226.558 343.567 227.323 343.972 227.846 344.281C228.369 344.592 229.611 345.279 230.6 345.81C231.589 346.34 232.83 347.066 233.353 347.422C233.876 347.78 234.688 348.437 235.154 348.883C235.619 349.328 236.263 349.781 236.583 349.889C236.903 349.998 237.119 350.182 237.06 350.298C237 350.415 237.168 350.576 237.43 350.658C237.693 350.739 237.979 350.788 238.066 350.764C238.153 350.741 238.178 350.817 238.119 350.934C238.059 351.05 238.155 351.146 238.331 351.146C238.506 351.146 238.648 351.241 238.648 351.357C238.648 351.474 238.72 351.552 238.807 351.529C238.894 351.508 239.301 351.637 239.707 351.815C240.114 351.993 241.067 352.258 241.825 352.404C242.584 352.548 243.583 352.685 244.049 352.709C244.515 352.732 244.943 352.685 245.002 352.605C245.062 352.524 245.68 352.395 246.379 352.321C247.078 352.245 247.697 352.116 247.756 352.035C247.815 351.952 248.004 351.855 248.18 351.817C248.355 351.779 248.951 351.47 249.503 351.129C250.056 350.79 250.509 350.557 250.509 350.616C250.509 350.675 250.766 350.508 251.079 350.245C251.393 349.983 252.013 349.411 252.456 348.975C252.901 348.538 253.267 348.204 253.271 348.233C253.278 348.263 253.731 347.848 254.277 347.31C254.826 346.774 255.54 346.155 255.864 345.933C256.186 345.713 256.4 345.509 256.34 345.48C256.279 345.45 256.37 345.285 256.546 345.109C256.722 344.933 256.91 344.791 256.969 344.791C257.029 344.791 257.376 344.387 257.745 343.891C258.113 343.396 258.518 342.921 258.645 342.836C258.772 342.75 258.804 342.678 258.717 342.678C258.63 342.675 258.772 342.4 259.035 342.065C259.297 341.731 259.678 341.182 259.882 340.848C260.085 340.511 260.532 339.808 260.875 339.284C261.22 338.761 261.799 337.713 262.163 336.955C262.525 336.196 262.906 335.387 263.006 335.154C263.105 334.921 263.374 334.207 263.601 333.566C263.828 332.924 264.213 331.257 264.457 329.859C264.7 328.461 264.997 326.03 265.118 324.458C265.238 322.886 265.44 320.646 265.565 319.481C265.692 318.316 265.876 316.933 265.975 316.409C266.075 315.886 266.255 314.838 266.376 314.08C266.494 313.321 266.7 311.75 266.829 310.585C266.96 309.42 267.068 307.037 267.073 305.29C267.077 303.244 266.952 301.359 266.721 299.994C266.522 298.83 266.276 297.163 266.172 296.288C266.069 295.415 265.893 294.032 265.783 293.217C265.67 292.401 265.431 290.686 265.249 289.404C265.067 288.123 264.766 286.502 264.578 285.803C264.389 285.105 264.116 283.865 263.97 283.05C263.824 282.235 263.351 280.233 262.923 278.602C262.495 276.971 262.059 275.4 261.955 275.107C261.852 274.817 261.559 273.864 261.307 272.989C261.055 272.117 260.629 270.734 260.365 269.918C260.098 269.103 259.725 267.912 259.534 267.271C259.344 266.629 258.958 265.343 258.679 264.411C258.399 263.479 257.929 261.905 257.632 260.916C257.336 259.927 256.993 258.663 256.872 258.11C256.751 257.557 256.461 256.604 256.228 255.992C255.995 255.38 255.716 254.403 255.608 253.821C255.5 253.238 255.271 252.19 255.099 251.491C254.926 250.792 254.538 249.314 254.235 248.208C253.932 247.102 253.684 245.791 253.684 245.296C253.686 244.8 253.365 243.419 252.971 242.225C252.575 241.03 252.102 239.242 251.92 238.253C251.738 237.264 251.524 235.834 251.446 235.076C251.367 234.318 251.126 232.888 250.908 231.899C250.692 230.91 250.27 228.478 249.971 226.498C249.675 224.518 249.287 222.086 249.111 221.097C248.936 220.108 248.705 218.82 248.601 218.238C248.497 217.655 248.177 215.844 247.891 214.213C247.548 212.26 247.33 210.053 247.256 207.753C247.169 205.061 246.996 203.528 246.506 201.081C246.157 199.334 245.591 197.093 245.25 196.104C244.909 195.115 244.511 194.018 244.367 193.668C244.221 193.319 244.028 192.842 243.935 192.609C243.844 192.376 243.482 191.472 243.13 190.597C242.779 189.724 242.194 187.913 241.83 186.573C241.465 185.232 241.065 183.851 240.94 183.501C240.815 183.152 240.605 182.58 240.476 182.231C240.345 181.881 239.777 180.689 239.214 179.583C238.65 178.477 237.752 176.952 237.219 176.194C236.685 175.436 235.855 174.341 235.374 173.758C234.895 173.176 233.97 171.986 233.321 171.111C232.673 170.238 231.39 168.724 230.47 167.747C229.551 166.771 227.899 165.292 226.8 164.464C225.701 163.634 224.557 162.632 224.258 162.236C223.96 161.842 223.419 161.175 223.057 160.753C222.695 160.334 221.456 159.459 220.304 158.807C219.152 158.157 217.398 157.096 216.409 156.452C215.42 155.806 213.797 154.886 212.808 154.41C211.819 153.931 210.055 153.203 208.89 152.79C207.725 152.377 206.2 151.764 205.501 151.432C204.802 151.099 203.993 150.76 203.7 150.68C203.41 150.597 202.836 150.383 202.43 150.201C202.023 150.019 200.517 149.144 199.085 148.259C197.653 147.372 195.698 146.171 194.739 145.588C193.782 145.006 192.403 144.125 191.676 143.629C190.95 143.133 190.31 142.729 190.251 142.729C190.191 142.729 189.406 142.24 188.503 141.642C187.601 141.045 186.576 140.369 186.226 140.141C185.877 139.912 185.163 139.156 184.638 138.461C184.113 137.766 182.802 136.512 181.723 135.674C180.273 134.549 179.417 134.047 178.44 133.755C177.538 133.486 176.615 132.973 175.53 132.141C174.658 131.469 173.704 130.798 173.412 130.647C173.122 130.497 172.597 130.342 172.247 130.302C171.898 130.262 171.589 130.135 171.559 130.018C171.529 129.904 171.411 129.809 171.294 129.809C171.178 129.809 170.612 129.355 170.038 128.803C169.462 128.25 168.818 127.636 168.608 127.441C168.397 127.244 167.912 126.721 167.53 126.276C167.149 125.831 166.27 124.562 165.58 123.455C164.887 122.347 164.222 121.324 164.101 121.178C163.98 121.031 163.928 120.89 163.985 120.86C164.04 120.83 163.86 120.33 163.584 119.748C163.307 119.165 162.907 118.117 162.693 117.418C162.407 116.476 162.309 115.491 162.318 113.606C162.326 111.939 162.494 110.189 162.801 108.522C163.059 107.124 163.402 105.218 163.563 104.286C163.726 103.354 163.957 102.066 164.076 101.427C164.197 100.787 164.44 99.4993 164.62 98.5674C164.8 97.6354 165.046 96.2545 165.162 95.4962C165.281 94.7379 165.525 93.5476 165.7 92.8486C165.878 92.1497 166.132 91.2431 166.266 90.8365C166.399 90.4298 166.656 89.9765 166.836 89.8325C167.016 89.6864 167.689 89.5063 168.329 89.428C168.969 89.3517 169.828 89.1357 170.235 88.9472C170.642 88.7587 171.262 88.4176 171.612 88.1889C171.961 87.9602 172.512 87.4857 172.836 87.1341C173.158 86.7825 173.77 85.9226 174.196 85.2236C174.622 84.5247 175.321 83.5249 175.748 82.9997C176.176 82.4744 177.125 81.1421 177.854 80.0344C178.582 78.9266 179.345 77.785 179.548 77.4927C179.752 77.2025 180.304 76.2007 180.777 75.2688C181.251 74.3368 182.035 72.6212 182.522 71.4563C183.009 70.2913 183.674 68.527 183.998 67.5379C184.356 66.4513 184.648 64.9814 184.737 63.8313C184.824 62.7214 184.788 61.1731 184.653 60.1247C184.517 59.0911 184.189 57.8287 183.88 57.1594C183.583 56.5197 183.132 55.7699 182.878 55.4967C182.624 55.2235 182.056 54.8189 181.62 54.5965C181.183 54.3763 180.611 54.1941 180.349 54.192C180.086 54.1899 179.271 54.4059 178.536 54.6685C177.373 55.0858 177.176 55.107 177.009 54.8295C176.901 54.6537 176.85 52.5696 176.892 50.1698C176.935 47.7828 177.03 45.2072 177.104 44.451C177.176 43.6949 177.284 42.549 177.343 41.9094C177.4 41.2697 177.549 39.1241 177.672 37.1438C177.792 35.1634 177.839 32.4226 177.771 31.0543C177.703 29.6861 177.447 27.6845 177.201 26.6064C176.956 25.5283 176.42 23.8847 176.009 22.9528C175.6 22.0208 174.973 20.8305 174.619 20.3052C174.266 19.7799 173.645 18.9708 173.241 18.5049C172.834 18.0389 171.813 16.9439 170.968 16.0691C170.123 15.1965 168.873 13.9532 168.191 13.3093C167.509 12.6654 166.571 11.8415 166.105 11.4793C165.639 11.115 164.781 10.4774 164.199 10.0602C163.616 9.64504 162.377 8.83383 161.445 8.25984C160.513 7.68372 158.463 6.59928 156.891 5.84737C155.32 5.09334 153.46 4.30966 152.761 4.10209C152.062 3.89452 151.086 3.54716 150.59 3.33112C150.095 3.11508 149.285 2.85456 148.79 2.75077C148.294 2.6491 146.651 2.21279 145.136 1.77858C143.622 1.3465 141.906 0.905945 141.324 0.802161C140.741 0.698376 139.551 0.469625 138.676 0.291709C137.774 0.109556 136.128 -0.0154085 134.864 0.00153595C133.641 0.0163623 132.402 0.0671954 132.11 0.113793Z" fill="black"/>
</svg>
