<svg width="219" height="442" viewBox="0 0 219 442" fill="none" xmlns="http://www.w3.org/2000/svg">
<path fill-rule="evenodd" clip-rule="evenodd" d="M130.488 0.743594C129.973 1.57629 125.443 2.09847 119.945 1.96069C115.817 1.85685 109.86 3.53921 108.445 5.20859C107.895 5.85757 105.813 7.15054 103.819 8.08208C99.6507 10.029 94.1197 14.9353 91.1877 19.2845C81.2487 34.0333 72.4777 79.4571 77.3297 91.0519C79.5507 96.3585 79.4477 99.6584 77.0617 99.6584C73.5417 99.6584 73.7597 107.522 77.3447 109.861C78.1407 110.382 78.1287 111.088 77.3017 112.423C76.6627 113.454 76.5117 114.897 76.9597 115.698C78.1527 117.832 72.0867 131.6 69.5157 132.594C66.8037 133.641 63.3327 137.635 58.7537 144.977C56.7427 148.202 46.1977 167.676 44.3667 171.546C40.9477 178.773 29.3487 196.013 26.7687 197.699C25.4657 198.552 23.0917 201.665 21.4927 204.618C19.8947 207.57 16.4317 212.842 13.7977 216.332C7.97066 224.055 5.53766 230.31 4.06266 241.359C3.44566 245.985 2.26666 250.514 1.44266 251.422C-0.587335 253.662 -0.449336 256.407 1.69466 256.434C2.97366 256.45 4.04266 258.324 5.66866 263.402C8.46566 272.135 12.2287 278.152 15.7317 279.495C17.2237 280.066 22.6417 280.386 27.7707 280.205L37.0957 279.876L37.6347 282.57C37.9317 284.052 39.0227 286.032 40.0597 286.968C41.0967 287.905 41.9447 289.046 41.9447 289.504C41.9447 290.759 31.1117 310.029 26.7607 316.513C24.6617 319.64 22.9447 322.812 22.9447 323.561C22.9447 324.31 24.5197 327.534 26.4447 330.726C28.3697 333.918 29.9447 336.861 29.9447 337.267C29.9447 337.673 31.1347 339.753 32.5897 341.888C38.7817 350.982 38.5137 359.27 31.1237 387.213C25.4927 408.504 24.0587 415.213 21.4147 432.636C21.0807 434.832 20.5647 437.64 20.2677 438.876L19.7277 441.122H107.223H194.718L195.282 438.377C195.592 436.867 196.779 431.363 197.919 426.146C199.059 420.929 200.269 411.472 200.606 405.13C201.122 395.459 200.87 391.963 199.046 383.457C197.85 377.879 196.215 372.06 195.414 370.526C194.613 368.993 193.955 366.813 193.951 365.682C193.948 364.552 193.284 362.754 192.477 361.688C190.809 359.488 190.43 351.699 191.945 350.764C192.495 350.425 192.945 349.456 192.945 348.613C192.945 347.769 193.938 345.687 195.151 343.986C196.569 341.998 197.459 339.088 197.641 335.844C197.798 333.067 198.202 328.643 198.539 326.011C199.081 321.786 198.68 320.256 195.099 312.906C189.086 300.563 189.078 300.426 193.867 293.138C198.804 285.626 200.611 280.022 202.172 267.395C202.98 260.859 204.074 256.668 205.692 253.916C211.081 244.747 216.77 231.555 217.748 225.96C219.17 217.821 219.2 176.666 217.789 168.567C215.657 156.326 214.392 154.473 196.906 138.002C189.505 131.03 181.512 120.196 182.286 118.184C182.574 117.433 184.159 116.524 185.808 116.162C189.305 115.396 190.41 114.217 191.365 110.237C191.823 108.327 191.632 107.071 190.805 106.562C189.924 106.017 190.355 105.42 192.247 104.559C194.96 103.325 195.858 100.34 193.883 99.1212C191.324 97.5417 190.747 92.2729 190.824 71.203C190.92 45.1399 189.912 39.1493 182.614 22.4156C180.44 17.4294 174.796 11.7833 169.763 9.55876C168.2 8.86785 166.679 7.54093 166.383 6.60839C165.833 4.8801 162.551 4.1143 152.445 3.35649C147.098 2.95512 143.066 2.00162 141.443 0.752582C140.146 -0.245851 131.105 -0.252843 130.488 0.743594ZM82.8747 91.9794C82.8067 94.0881 82.7737 94.0951 81.9447 92.1701C80.7617 89.4224 80.7617 88.4449 81.9447 89.1748C82.4947 89.5143 82.9127 90.7763 82.8747 91.9794Z" fill="black"/>
</svg>
