<svg width="267" height="565" viewBox="0 0 267 565" fill="none" xmlns="http://www.w3.org/2000/svg">
<path fill-rule="evenodd" clip-rule="evenodd" d="M122.925 2.56204C120.263 4.37136 118.842 4.81119 118.093 4.06147C117.509 3.47669 115.382 2.99887 113.366 2.99887C107.302 2.99887 102.551 8.36585 97.4338 20.9921C90.4899 38.1276 88.5388 45.4848 87.4963 58.478C85.8008 79.592 84.4168 91.3356 83.0198 96.4636C82.2719 99.2126 80.6862 105.055 79.4979 109.449C78.3087 113.841 76.9986 117.89 76.5872 118.445C76.1748 119 74.7518 123.888 73.4228 129.308C70.7037 140.402 69.7651 141.511 60.5475 144.53C54.5532 146.492 48.2974 151.56 45.7181 156.543C44.7935 158.329 42.0135 161.961 39.5391 164.613C35.2464 169.216 32.5543 174.512 32.5543 178.354C32.5543 179.331 30.5712 185.147 28.1467 191.278C25.7222 197.408 22.9702 205.123 22.0306 208.421C21.091 211.72 19.9387 215.319 19.4683 216.418C18.999 217.518 17.4243 221.791 15.9704 225.915C12.9538 234.466 9.15235 243.158 3.80514 253.731C-0.208018 261.667 -0.225992 261.544 5.40082 264.79C6.45528 265.398 6.30151 267.451 4.60098 275.468C0.779546 293.481 -0.905001 309.533 0.479983 314.72C1.92588 320.131 7.07738 328.077 15.8286 338.397C17.3394 340.178 18.5746 342.101 18.5746 342.67C18.5746 343.239 18.9151 343.853 19.3315 344.037C19.7469 344.22 22.5558 347.744 25.5715 351.867C33.8973 363.248 34.5494 363.966 55.44 384.699L74.9236 404.036L76.2247 415.687C76.9407 422.096 78.4055 437.01 79.479 448.831C81.2144 467.928 84.4457 489.611 86.1812 493.814C86.5227 494.638 87.5862 498.012 88.5458 501.311C90.3102 507.374 95.27 521.224 97.7833 527.103C99.6546 531.482 101.454 537.173 101.454 538.717C101.454 539.42 102.061 541.412 102.804 543.144C105.359 549.108 106.48 555.573 105.436 558.323C104.893 559.75 104.45 561.789 104.45 562.853C104.45 564.734 105.573 564.787 145.251 564.787H186.053L186.582 558.951C186.873 555.741 187.598 552.255 188.193 551.204C190.073 547.886 193.989 537.64 197.138 527.801C198.808 522.578 200.831 516.955 201.632 515.306C203.483 511.492 205.357 507.206 209.28 497.812C211.001 493.689 212.835 489.415 213.353 488.316C215.981 482.744 223.676 458.886 226.272 448.26C227.894 441.622 229.898 434.571 230.725 432.589C231.552 430.608 232.523 426.366 232.882 423.164C233.241 419.963 233.929 416.573 234.411 415.633C235.64 413.234 246.841 406.847 249.819 406.847C254.515 406.847 266.235 391.51 266.203 385.409C266.197 384.279 265.523 381.147 264.705 378.448C263.887 375.749 263.218 370.798 263.218 367.445C263.218 364.094 262.791 359.858 262.268 358.034C261.177 354.226 253.471 341.911 245.113 330.62C240.707 324.67 239.224 321.766 238.73 318.125C237.819 311.424 235.326 300.786 234.06 298.198C233.421 296.892 233.268 294.067 233.679 291.2C234.06 288.556 234.712 282.225 235.128 277.132C235.938 267.223 236.147 266.78 241.308 264.009C243.164 263.013 245.53 261.06 246.568 259.669C248.431 257.17 248.422 257.032 245.792 248.274C240.858 231.852 238.428 222.462 236.769 213.42C235.861 208.471 234.77 203.748 234.345 202.923C233.92 202.099 233.003 196.926 232.308 191.428C229.959 172.841 224.957 158.095 218.579 150.954C215.557 147.569 214.685 145.949 215.467 145.166C217.247 143.384 215.584 140.948 212.573 140.932C211.046 140.923 209.23 140.556 208.537 140.116C207.052 139.173 203.756 130.144 202.819 124.453C202.457 122.254 201.542 117.306 200.787 113.457C200.031 109.609 199.135 103.311 198.794 99.4625C198.454 95.614 197.771 90.8907 197.276 88.9665C196.781 87.0422 195.906 82.094 195.331 77.9706C194.139 69.4188 187.633 45.066 184.783 38.4855C178.689 24.4168 176.93 21.5429 170.853 15.7301C166.362 11.4337 160.039 7.35023 155.724 5.95976C153.61 5.27802 150.982 4.33637 149.883 3.86555C146.818 2.55304 133.679 0 129.986 0C128.102 0 125.086 1.09459 122.925 2.56204ZM60.919 288.141C62.4258 294.877 64.7494 304.943 66.0805 310.513C67.4744 316.343 68.5019 323.671 68.5019 327.788C68.5019 335.805 70.2684 341.142 73.4927 342.87C75.4828 343.936 75.5297 344.17 74.0768 345.778C73.2071 346.739 72.4961 348.204 72.4961 349.03C72.4961 349.858 72.2195 350.812 71.881 351.151C71.0373 351.995 64.0834 343.202 57.0356 332.375C53.8143 327.427 50.8077 323.228 50.3544 323.045C49.901 322.861 49.5296 322.294 49.5296 321.784C49.5296 321.274 47.6553 318.108 45.3656 314.749L41.2017 308.643L42.9891 301.016C45.8379 288.858 46.455 287.272 48.8326 285.998C50.0688 285.336 52.3445 282.792 53.8912 280.345C55.438 277.898 57.0346 275.896 57.441 275.896C57.8465 275.896 59.4112 281.406 60.919 288.141Z" fill="black"/>
</svg>
