<svg width="203" height="477" viewBox="0 0 203 477" fill="none" xmlns="http://www.w3.org/2000/svg">
<path fill-rule="evenodd" clip-rule="evenodd" d="M96.5464 1.07747C82.1804 4.70015 78.8164 6.08187 72.1354 11.1033C56.2334 23.0553 49.8054 37.531 49.8654 61.2593C49.9024 75.8729 51.6044 84.451 56.9574 97.0175C59.2014 102.286 61.2944 108.309 61.6084 110.403C62.4804 116.229 65.2624 125.005 66.8324 126.884C67.6064 127.81 70.2204 129.499 72.6424 130.636C75.0644 131.774 77.0434 133.038 77.0404 133.448C77.0244 135.247 68.6754 143.747 67.1734 143.492C66.2704 143.339 63.0594 144.745 60.0384 146.615C52.2964 151.409 32.0454 161.29 28.2634 162.119C23.0634 163.26 13.5974 168.264 10.1814 171.677C6.33345 175.521 4.91045 178.158 2.15145 186.559C-1.80555 198.608 -0.0945597 226.762 5.56644 242.753C10.4344 256.501 16.9244 276.048 19.0144 283.255C20.3894 287.994 21.9264 291.095 23.5214 292.349C25.3804 293.81 26.2044 295.852 27.0684 301.142C27.6874 304.932 29.3804 314.45 30.8304 322.293C33.1694 334.941 33.3134 336.916 32.0994 339.777C31.3354 341.578 30.4384 348.795 30.0684 356.132C29.4524 368.318 29.2174 369.485 26.8104 372.343C25.3834 374.037 23.8974 376.871 23.5084 378.64C22.8994 381.413 23.1964 382.173 25.6534 384.13C28.0284 386.022 28.2794 386.616 27.1504 387.681C26.0744 388.696 25.7024 388.702 25.3384 387.71C25.0864 387.022 23.9044 386.454 22.7134 386.446C21.5214 386.437 19.8954 386.019 19.1004 385.516C16.2244 383.699 14.3944 386.129 13.2004 393.35C11.4624 403.864 11.6334 405.222 14.9484 407.236C17.6984 408.906 17.7834 409.16 16.5684 412.047C15.0284 415.707 14.0064 429.109 13.5674 451.401C13.3894 460.468 12.9164 469.798 12.5174 472.132L11.7904 476.379H105.355H198.92L198.514 473.132C196.527 457.245 195.646 451.851 193.932 445.058C192.584 439.715 192.163 435.819 192.612 432.826C193.576 426.406 192.423 422.075 188.321 416.707C186.318 414.085 183.652 408.906 182.397 405.201C181.142 401.494 179.104 397.096 177.869 395.427C175.687 392.479 175.673 392.312 177.389 389.676C180.732 384.538 182.295 379.949 183.216 372.57C183.724 368.501 184.526 364.452 184.998 363.572C186.464 360.835 189.148 340.031 189.291 330.297C189.366 325.195 189.063 313.828 188.619 305.036C188.138 295.525 188.187 287.636 188.741 285.557C189.602 282.323 190.031 282.012 194.521 281.37C203.365 280.107 203.237 280.601 202.032 252.539C199.6 195.877 199.283 193.634 192.745 186.794C190.37 184.309 179.18 175.155 177.351 174.201C176.754 173.889 182.131 160.295 183.233 159.326C188.539 154.665 190.191 151.717 191.103 145.285C191.891 139.723 191.78 138.213 190.432 136.157C189.07 134.079 188.028 133.693 183.802 133.693C179.477 133.693 178.257 133.212 174.914 130.196C172.47 127.989 170.027 126.698 168.293 126.697C165.584 126.696 165.594 126.672 169.046 124.949C174.153 122.4 174.109 119.661 168.902 115.835C166.565 114.118 163.841 112.712 162.849 112.712C161.857 112.712 161.051 112.599 161.057 112.462C161.063 112.325 161.731 110.027 162.543 107.355C163.354 104.682 164.315 98.9367 164.678 94.5847C165.042 90.2337 165.723 86.4362 166.192 86.1464C167.992 85.0345 166.921 80.6685 164.046 77.3975C160.824 73.7308 159.96 68.7524 162.546 68.7524C163.371 68.7524 164.046 67.8992 164.046 66.8561C164.046 65.8121 165.396 62.3952 167.046 59.2611C169.632 54.3496 170.046 52.4933 170.046 45.8064C170.046 38.9487 169.645 37.2523 166.585 31.1709C164.681 27.3883 161.306 22.1092 159.085 19.4386C156.863 16.7691 155.046 14.2594 155.046 13.8627C155.046 13.4661 153.971 12.5659 152.656 11.8636C151.342 11.1602 149.739 9.62363 149.095 8.44771C146.67 4.02376 143.155 2.48718 134.629 2.12451C130.184 1.93468 121.596 1.33923 115.546 0.800721C102.991 -0.316254 102.012 -0.301268 96.5464 1.07747Z" fill="#070707"/>
</svg>
