<svg width="247" height="522" viewBox="0 0 247 522" fill="none" xmlns="http://www.w3.org/2000/svg">
<path fill-rule="evenodd" clip-rule="evenodd" d="M117.785 0.4732C117.785 1.92883 112.061 7.38069 109.771 8.10601C108.679 8.45268 107.785 9.15502 107.785 9.66754C107.785 10.1801 107.292 10.5997 106.689 10.5997C106.087 10.5997 104.287 11.5298 102.689 12.6657C100.65 14.1163 99.7757 14.3391 99.7547 13.415C99.7377 12.6907 99.2267 12.9974 98.6197 14.0964C98.0117 15.1953 96.4537 17.0426 95.1577 18.2025C93.8607 19.3614 92.1257 21.922 91.3017 23.8921C90.4777 25.8623 89.2357 27.8354 88.5417 28.278C87.8467 28.7206 86.0147 30.9445 84.4707 33.2203C81.4667 37.6462 81.4487 38.0698 83.5287 54.5582C83.9107 57.5804 84.1177 65.1982 83.9907 71.4873C83.8627 77.7764 84.1777 84.2952 84.6907 85.9737C85.2037 87.6521 85.9137 91.1758 86.2697 93.8043C86.7497 97.3469 87.7567 99.422 90.1637 101.826C92.0307 103.691 94.1567 107.392 95.1657 110.535C96.1317 113.541 98.3867 118.248 100.179 120.996C104.091 126.996 106.448 136.914 104.548 139.379C96.4077 149.94 94.8617 151.211 89.5177 151.744C78.7907 152.812 67.1987 154.622 64.5437 155.643C61.6617 156.751 59.1827 160.178 55.0477 168.765C53.6757 171.614 51.1077 175.353 49.3417 177.073C46.9427 179.41 45.5297 182.314 43.7537 188.562C42.4457 193.162 40.5437 197.822 39.5257 198.92C38.4647 200.064 37.7407 202.197 37.8307 203.916C38.0937 208.943 37.8987 209.337 34.4567 210.775C32.3477 211.655 30.5107 213.467 29.4387 215.723C28.5087 217.681 25.8437 221.513 23.5167 224.238C21.1887 226.963 16.0017 235.645 11.9887 243.53C5.36874 256.54 4.55673 258.792 3.22173 267.857C2.41273 273.352 1.24073 281.24 0.617734 285.385C-1.46027 299.214 1.67173 305.491 10.5087 305.207C16.0317 305.029 26.7577 308.123 33.3307 311.79C36.9407 313.803 40.3677 314.575 49.9327 315.531L61.9857 316.735L61.2977 325.265C60.9197 329.957 59.7087 340.539 58.6057 348.781C57.5037 357.023 56.2197 369.611 55.7537 376.755C55.2867 383.898 54.3737 392.665 53.7257 396.236C52.1587 404.864 51.9767 455.901 53.4197 482.155C54.2637 497.53 55.0527 504.256 56.5847 509.13C57.7067 512.702 58.8947 516.86 59.2237 518.371L59.8227 521.119H144.663H229.503L230.172 508.381C230.558 501.044 230.345 489.077 229.67 480.157C229.025 471.64 228.542 463.548 228.596 462.174C229.123 448.82 227.8 426.016 226.267 422.026C225.958 421.222 226.638 418.391 227.777 415.736C228.916 413.081 230.105 408.394 230.419 405.321C231.137 398.287 229.335 385.173 227.071 380.96C225.782 378.56 225.321 375.116 225.236 367.264C225.166 360.789 224.415 353.905 223.273 349.281C221.036 340.224 221.012 335.033 223.145 321.307C224.042 315.537 225.207 306.995 225.733 302.325C228.774 275.361 230.77 264.579 235.862 247.603C238.05 240.309 240.701 230.194 241.753 225.125C242.805 220.054 244.368 213.939 245.225 211.534C247.301 205.716 247.393 180.015 245.362 173.327C242.34 163.381 235.028 153.194 228.484 149.814C223.769 147.377 216.594 145.495 211.978 145.484C208.93 145.476 205.401 144.305 199.903 141.476C195.63 139.278 191.522 137.48 190.774 137.48C190.026 137.48 188.472 136.596 187.321 135.516C185.157 133.485 178.657 129.595 173.098 127.003L169.91 125.516L169.598 114.765C169.229 102.074 169.494 99.5159 171.18 99.5159C174.216 99.5159 176.576 94.8683 178.252 85.589C180.086 75.4306 179.652 67.8158 177.185 66.8696C175.959 66.4001 175.83 64.2002 176.386 53.1905C176.75 45.9753 177.394 39.4215 177.817 38.6262C179.071 36.2665 177.088 32.7028 171.481 27.235C168.578 24.4047 164.72 19.741 162.908 16.8718C161.096 14.0035 158.077 10.7066 156.199 9.54766C154.321 8.38775 152.785 7.07497 152.785 6.63039C152.785 6.18481 151.66 5.53843 150.285 5.19376C148.91 4.84908 147.785 4.12576 147.785 3.58727C147.785 3.04778 146.687 2.60719 145.344 2.60719C144.001 2.60719 142.617 2.14463 142.268 1.58016C141.881 0.954748 137.46 0.649039 130.959 0.798897C125.088 0.934769 119.723 0.695988 119.035 0.268391C118.348 -0.158207 117.785 -0.0662915 117.785 0.4732Z" fill="black"/>
</svg>
