<svg width="231" height="530" viewBox="0 0 231 530" fill="none" xmlns="http://www.w3.org/2000/svg">
<path fill-rule="evenodd" clip-rule="evenodd" d="M99.9302 0.770522C92.3548 3.41003 85.7849 7.60248 77.9871 14.776C75.3809 17.1728 69.4752 28.8024 69.0034 32.4656C68.801 34.0405 68.3472 38.3628 67.9951 42.0709C67.643 45.779 66.9428 48.812 66.4371 48.812C65.9324 48.812 65.5195 49.8746 65.5195 51.1738C65.5195 52.4731 64.6218 54.6782 63.5247 56.0754C61.0381 59.2402 61.0411 60.5494 63.5546 70.1587C66.4092 81.0703 68.5826 85.6273 71.5608 86.9465C74.3576 88.1869 76.2516 94.144 77.2191 104.738C78.2923 116.504 73.3133 133.7 68.8339 133.7C67.9592 133.7 66.2047 134.823 64.933 136.196C63.6623 137.57 61.7972 138.693 60.7878 138.693C59.7784 138.693 57.2879 140.266 55.2521 142.188C53.2164 144.111 51.1358 145.684 50.6272 145.684C50.1195 145.684 49.1101 146.265 48.385 146.976C46.4869 148.838 35.3279 155.489 28.747 158.681C23.4567 161.247 7.3854 171.742 5.16417 174.082C0.440432 179.059 -0.885125 191.447 0.547157 217.237C3.23219 265.609 3.79074 273.396 5.22601 282.503C6.04888 287.721 7.04728 295.361 7.44525 299.48C8.04968 305.742 8.51148 307.121 10.2619 307.891C11.4977 308.435 12.9829 310.686 13.8865 313.384C14.7283 315.899 16.8628 321.551 18.6312 325.945C20.3986 330.34 22.194 334.834 22.6219 335.932C23.0487 337.031 24.8092 340.931 26.5327 344.599L29.6666 351.268L25.653 363.549C20.4275 379.539 19.9169 382.986 19.1718 407.338L18.5464 427.811L21.4549 436.799C23.6911 443.711 25.2341 446.658 28.1326 449.558L31.9018 453.329L31.2325 491.259L30.5632 529.189L109.133 528.933L187.702 528.677L188.521 508.204C190.382 461.666 189.112 406.746 185.61 382.371C184.386 373.85 184.314 370.201 185.23 362.897C185.849 357.953 186.606 350.651 186.911 346.668L187.466 339.428L190.577 339.34C192.287 339.291 199.848 339.179 207.377 339.09C220.682 338.933 221.142 338.855 223.655 336.339C225.078 334.916 226.671 331.994 227.195 329.847C230.603 315.894 232.059 292.577 229.908 286.397C229.175 284.291 229.212 283.066 230.038 282.068C230.816 281.131 230.908 279.593 230.321 277.346C229.807 275.377 229.834 272.753 230.388 270.931C231.18 268.324 230.961 267.443 228.963 265.212C223.659 259.289 223.064 258.419 223.659 257.456C224 256.902 223.568 255.362 222.697 254.031C221.828 252.702 221.116 250.542 221.116 249.231C221.116 247.921 219.91 244.646 218.435 241.955C216.236 237.942 215.778 235.896 215.889 230.572C215.963 227.001 215.402 222.058 214.642 219.586C213.883 217.114 212.774 211.497 212.178 207.103C211.58 202.708 210.257 196.641 209.235 193.62C208.214 190.599 206.84 186.061 206.18 183.535C204.461 176.944 198.734 169.979 191.363 165.513C185.322 161.852 177.637 158.667 174.85 158.667C174.128 158.667 171.347 157.5 168.669 156.075C165.992 154.65 159.142 151.491 153.449 149.056C147.755 146.621 141.157 143.293 138.788 141.661C136.418 140.028 134.075 138.693 133.578 138.693C131.523 138.693 136.368 112.836 139.566 106.735C140.862 104.264 142.683 99.8355 143.614 96.8954C144.57 93.8704 146.38 90.7026 147.78 89.6C149.156 88.5165 150.888 85.5154 151.682 82.84C152.466 80.1945 153.818 76.6551 154.685 74.9764C156.787 70.9067 156.892 63.9959 154.91 60.2968C153.781 58.1916 153.297 54.6283 153.278 48.3126C153.238 34.421 151.73 26.1929 148.219 20.7141C142.267 11.4284 131.834 3.23826 123.177 1.05614C118.186 -0.201193 103.249 -0.384949 99.9302 0.770522Z" fill="black"/>
</svg>
