<svg width="315" height="548" viewBox="0 0 315 548" fill="none" xmlns="http://www.w3.org/2000/svg">
<path opacity="0.99" d="M222.779 0.0638051C222.358 0.142922 219.342 0.617635 216.076 1.11972C212.809 1.62181 209.586 2.17868 208.915 2.35517C208.245 2.53166 206.874 3.05808 205.869 3.52061C204.863 3.98619 202.325 5.64766 200.232 7.21783C198.136 8.788 195.942 10.2973 195.357 10.5712C194.772 10.8481 193.824 11.4628 193.254 11.9405C192.682 12.4183 191.704 13.5624 191.079 14.4814C190.451 15.4004 189.22 16.9766 188.343 17.9808C187.465 18.985 186.542 20.2174 186.292 20.7195C186.042 21.2216 185.616 21.8789 185.342 22.1831C184.915 22.6518 184.9 22.883 185.226 23.7807C185.436 24.3558 185.537 24.9644 185.454 25.1318C185.372 25.2991 185.436 28.4151 185.598 32.0545C185.762 35.6939 185.911 40.5901 185.93 42.9332C185.948 45.2762 186.085 48.0819 186.231 49.1712C186.381 50.2606 186.64 54.9833 186.807 59.6695C186.978 64.3557 187.261 69.4222 187.441 70.9285C187.618 72.4347 187.837 74.2149 187.929 74.8843C188.017 75.5538 188.349 76.6493 188.663 77.3187C188.98 77.9882 189.833 79.7683 190.558 81.2746C191.286 82.7808 192.054 84.561 192.27 85.2304C192.484 85.8999 192.837 87.4062 193.053 88.5777C193.273 89.7492 193.827 91.6663 194.29 92.8379C194.754 94.0094 195.302 95.1718 195.509 95.4244C195.719 95.6769 196.146 96.4286 196.457 97.098C196.771 97.7675 198.331 99.6572 199.924 101.294C201.518 102.934 202.925 104.267 203.05 104.261C203.175 104.255 204.616 105.119 206.249 106.181C207.882 107.243 209.528 108.269 209.906 108.463C210.283 108.655 210.728 109.258 210.896 109.802C211.063 110.347 211.292 112.298 211.402 114.139C211.533 116.345 211.487 117.693 211.271 118.094C210.966 118.651 210.606 118.706 207.032 118.734C204.241 118.755 202.605 118.916 201.298 119.306C200.293 119.604 198.785 120.057 197.947 120.316C196.786 120.672 194.068 120.83 186.521 120.991C178.206 121.168 176.18 121.299 173.876 121.819C172.368 122.157 169.833 122.893 168.24 123.456C166.646 124.016 164.178 125.145 162.755 125.964C161.332 126.779 157.835 128.955 154.986 130.799C152.137 132.64 148.813 134.816 147.597 135.631C146.381 136.447 145.217 137.116 145.007 137.122C144.797 137.125 144.285 136.419 143.865 135.555C143.365 134.523 141.988 132.868 139.87 130.753C138.091 128.979 135.208 125.884 133.466 123.876C131.72 121.868 129.886 119.68 129.386 119.017C128.886 118.353 128.195 117.532 127.847 117.191C127.497 116.85 126.522 115.684 125.675 114.595C124.831 113.506 123.606 112.13 122.957 111.54C122.305 110.947 120.885 109.961 119.794 109.346C118.704 108.734 116.854 108.004 115.681 107.724C114.264 107.383 112.113 107.201 109.283 107.176C105.526 107.143 104.889 107.213 103.951 107.751C103.204 108.181 102.61 108.92 101.97 110.225C101.467 111.251 100.852 112.322 100.599 112.605C100.346 112.891 99.4564 113.442 98.6185 113.831C97.7806 114.221 96.0683 115.35 94.8099 116.339C93.5546 117.331 92.1469 118.712 91.6869 119.409C91.2268 120.109 90.459 121.743 89.9806 123.039C89.5053 124.336 89.0239 126.149 88.9142 127.071C88.8045 127.993 88.6034 129.226 88.4694 129.81C88.3353 130.394 87.4761 131.833 86.562 133.005C85.648 134.177 84.548 135.616 84.1215 136.2C83.6919 136.784 82.6041 138.498 81.7023 140.004C80.8034 141.51 79.7614 143.564 79.3866 144.568C79.0149 145.573 78.2258 147.56 77.6316 148.981C77.0405 150.402 76.1966 153.21 75.7608 155.219C75.3221 157.227 74.8194 159.555 74.6396 160.392C74.4568 161.247 74.3989 162.914 74.5086 164.195C74.6152 165.449 74.8316 167.643 74.99 169.064L75.2795 171.651C73.3356 175.658 72.3666 178.193 71.87 179.867C71.0839 182.511 70.9529 183.485 70.8706 187.322C70.8188 189.747 70.767 191.838 70.7579 191.963C70.7487 192.087 68.8445 194.211 66.5288 196.679C64.2162 199.147 61.5746 201.667 60.6636 202.275C59.7556 202.887 58.1804 204.049 57.1688 204.862C56.1573 205.674 54.4053 207.229 53.278 208.319C52.1537 209.408 51.0964 210.674 50.9319 211.133C50.682 211.83 50.7582 212.15 51.392 213.035C51.8124 213.619 52.1567 214.204 52.1598 214.328C52.1628 214.453 51.3584 215.378 50.3743 216.382C49.3902 217.387 47.5133 219.644 46.2062 221.403C44.8991 223.162 43.269 225.323 42.5834 226.211C41.8979 227.097 40.6517 228.755 39.8138 229.89C38.9759 231.028 37.6749 232.796 36.9193 233.819C36.1637 234.841 34.82 236.743 33.9334 238.048C33.0437 239.354 31.9955 240.903 31.5995 241.487C31.2064 242.071 30.0821 243.851 29.101 245.44C28.123 247.028 26.9682 248.741 26.5355 249.243C26.0998 249.749 25.4844 250.64 25.1645 251.224C24.8415 251.809 24.028 253.041 23.3516 253.963C22.6782 254.885 21.7641 256.254 21.3254 257.006C20.8866 257.758 20.1371 258.804 19.6588 259.331C19.1804 259.857 18.4766 260.746 18.0896 261.309C17.7057 261.872 16.7459 263.202 15.9568 264.263C15.1707 265.326 14.0098 266.899 13.3761 267.763C12.7454 268.624 12.0263 269.434 11.7765 269.558C11.5297 269.683 11.0666 270.301 10.7527 270.928C10.4359 271.554 9.665 272.686 9.04039 273.438C8.41578 274.19 7.62664 275.355 7.28844 276.025C6.95023 276.694 6.49625 277.789 6.28297 278.459C6.06664 279.128 5.51515 280.565 5.05812 281.654C4.59804 282.743 3.96125 284.864 3.63828 286.371C3.31835 287.877 2.93141 290.819 2.77602 292.913C2.62367 295.004 2.36164 297.949 2.19711 299.455C2.02953 300.962 1.75227 303.153 1.5786 304.324C1.40492 305.496 1.12765 308.304 0.966171 310.562C0.804686 312.82 0.524377 315.492 0.341565 316.496C0.158752 317.5 0.00640084 318.733 0.000307095 319.235C-0.00578666 319.737 0.0795273 321.106 0.192262 322.278C0.301949 323.449 0.454295 324.715 0.52742 325.092C0.600545 325.47 1.1764 326.343 1.80406 327.037C2.43172 327.728 3.83937 328.921 4.92711 329.684C6.01484 330.451 7.23664 331.358 7.63578 331.699C8.03797 332.04 9.37555 333.312 10.6065 334.526C11.8405 335.74 12.9861 336.732 13.1537 336.732C13.3212 336.732 13.6655 337.213 13.9154 337.797C14.1835 338.424 14.5918 338.868 14.9056 338.874C15.1981 338.88 15.8837 339.498 16.4291 340.243C17.1116 341.178 17.7758 341.707 18.5619 341.947C19.2291 342.148 22.6234 342.331 26.7123 342.383C32.9279 342.462 33.7536 342.532 34.0248 342.991C34.1923 343.274 34.6737 343.919 35.0912 344.424C35.5116 344.927 37.0869 345.952 38.5951 346.701L41.3373 348.064C47.3305 347.83 49.5395 347.568 50.3255 347.303C51.0812 347.051 52.5894 346.682 53.6771 346.485C54.7648 346.29 56.6173 346.059 57.7904 345.973C58.9634 345.891 60.8129 345.748 61.9037 345.66C63.5033 345.529 64.3229 345.645 66.1693 346.259C67.4277 346.679 70.0998 347.455 72.1107 347.985C74.1216 348.517 77.3422 349.418 79.2709 349.987C81.1995 350.556 84.1337 351.469 85.7973 352.017C87.4609 352.564 88.8685 353.149 88.9295 353.316C88.9873 353.483 88.4541 353.894 87.7381 354.229C86.9063 354.618 86.3274 355.136 86.1294 355.668C85.8765 356.35 85.9374 356.654 86.4584 357.342C86.885 357.905 87.6924 358.364 88.8959 358.733C89.8862 359.031 91.4523 359.481 92.3724 359.728C93.2926 359.977 94.4595 360.321 94.9623 360.494C95.465 360.668 97.3845 361.264 99.2279 361.818C101.071 362.375 105.017 363.495 107.994 364.31C112.439 365.527 113.442 365.902 113.582 366.401C113.679 366.742 112.994 369.34 112.019 372.335C111.062 375.262 109.42 380.055 108.369 382.985C107.314 385.912 105.763 390.501 104.916 393.179C104.069 395.857 102.835 399.965 102.171 402.308C101.507 404.651 100.413 408.278 99.7367 410.372C99.0634 412.462 98 415.819 97.3784 417.827C96.7569 419.835 96.2572 422.026 96.2694 422.696C96.2785 423.365 96.5192 424.461 96.8056 425.13C97.089 425.8 97.8416 427.099 98.4753 428.021C99.1091 428.943 100.291 430.318 101.105 431.082C101.915 431.846 103.195 432.95 103.951 433.538C104.706 434.125 105.937 435.026 106.693 435.54C107.448 436.054 109.112 437.345 110.392 438.41C111.671 439.475 114.276 441.392 116.181 442.67C118.085 443.948 121.699 446.324 124.212 447.952C126.726 449.58 130.498 452.121 132.591 453.6C134.687 455.079 136.558 456.604 136.75 456.99C136.945 457.373 137.03 458.238 136.939 458.907C136.829 459.71 137.009 460.897 137.466 462.406C137.847 463.66 138.191 465.306 138.231 466.058C138.271 466.81 138.456 467.805 138.645 468.264C138.834 468.724 138.99 469.341 138.993 469.634C138.996 469.926 139.206 471.262 139.462 472.6C139.721 473.939 140.187 476.197 140.498 477.621C140.812 479.045 141.214 481.233 141.397 482.49C141.576 483.744 141.866 485.664 142.036 486.75C142.204 487.837 142.551 489.62 142.807 490.706C143.063 491.792 143.42 493.436 143.6 494.358C143.779 495.28 144.023 496.649 144.142 497.401C144.261 498.152 144.504 499.044 144.687 499.379C144.867 499.713 145.242 500.879 145.516 501.965C145.79 503.051 146.515 505.175 147.128 506.682C147.737 508.188 148.417 509.627 148.633 509.877C148.852 510.126 149.035 510.54 149.041 510.79C149.047 511.039 149.614 512.272 150.297 513.528C150.982 514.782 151.659 515.878 151.802 515.963C151.945 516.048 152.694 517.758 153.468 519.766C154.245 521.775 155.196 524.443 155.586 525.7C156.006 527.051 156.378 529.224 156.494 531.025C156.604 532.699 156.814 535.438 156.96 537.111C157.109 538.785 157.362 540.906 157.524 541.828C157.688 542.75 158.005 544.427 158.231 545.562L158.642 547.619C199.376 547.613 211.201 547.506 211.201 547.381C211.201 547.257 210.911 546.402 210.561 545.479C210.04 544.122 209.951 543.404 210.095 541.676C210.192 540.504 210.363 538.587 210.475 537.416C210.606 536.074 210.545 534.723 210.311 533.764C210.107 532.927 209.583 531.421 209.144 530.417L208.349 528.591C209.01 521.988 209.208 517.81 209.217 515.05C209.226 512.29 209.4 509.137 209.604 508.051C209.808 506.965 210.046 504.36 210.131 502.269C210.216 500.176 210.286 498.295 210.286 498.085C210.286 497.875 210.527 497.699 210.82 497.693C211.112 497.684 211.52 497.854 211.728 498.073C211.935 498.289 212.172 499.15 212.258 499.987C212.346 500.824 212.495 502.467 212.593 503.639C212.69 504.81 212.892 507.275 213.041 509.116C213.193 510.957 213.446 513.489 213.611 514.746C213.772 515.999 214.059 517.712 214.244 518.549C214.43 519.386 214.793 521.714 215.049 523.722C215.305 525.731 215.545 527.715 215.582 528.135C215.622 528.551 215.737 529.102 215.841 529.352C215.945 529.601 216.115 530.56 216.222 531.482C216.328 532.404 216.539 533.907 216.688 534.829C216.837 535.751 217.111 537.254 217.294 538.176C217.477 539.098 217.767 540.672 217.937 541.676C218.108 542.68 218.309 544.427 218.382 545.556L218.513 547.61C283.512 547.61 285.23 547.582 285.069 547.077C284.978 546.785 284.633 545.312 284.31 543.806C283.984 542.3 283.713 540.383 283.704 539.546C283.698 538.709 283.777 529.945 283.878 520.071C283.981 510.011 284.188 501.883 284.347 501.585C284.502 501.293 286.583 500.081 288.972 498.898C291.361 497.711 293.695 496.378 294.158 495.931C294.898 495.219 295.002 494.896 294.996 493.293C294.99 492.288 294.658 490.097 294.255 488.424C293.856 486.75 293.308 483.464 293.04 481.121C292.775 478.778 292.421 475.147 292.26 473.057C292.098 470.963 291.757 463.983 291.501 457.538C291.242 451.093 290.892 442.125 290.718 437.606C290.425 430.078 290.453 428.894 291.029 423.456C291.376 420.194 291.921 415.469 292.241 412.958C292.564 410.448 292.97 406.887 293.149 405.046C293.326 403.206 293.89 397.798 294.405 393.027C295.118 386.42 295.349 382.83 295.374 377.964C295.401 372.575 295.297 370.977 294.721 367.77C294.344 365.677 293.643 362.116 293.161 359.858C292.677 357.601 292.132 353.97 291.946 351.795C291.76 349.619 291.4 346.95 291.147 345.861C290.895 344.771 290.413 342.513 290.078 340.84C289.74 339.166 288.942 336.564 288.299 335.058C287.656 333.552 286.775 331.017 286.336 329.429C285.901 327.84 285.544 326.057 285.544 325.473C285.547 324.889 286.026 322.594 286.611 320.376C287.199 318.158 288.579 313.913 289.682 310.943C290.785 307.973 292.281 303.828 293.003 301.738C293.728 299.644 295.145 295.676 296.15 292.913C297.156 290.15 299.298 284.536 300.907 280.437C303.451 273.971 304.155 272.498 306.236 269.33C307.552 267.322 309.142 264.65 309.77 263.396C310.516 261.905 310.961 260.536 311.059 259.44C311.178 258.108 311.053 257.396 310.443 255.941C310.02 254.937 308.649 251.58 307.393 248.486C306.138 245.391 304.959 242.308 304.773 241.639C304.545 240.805 304.532 239.941 304.734 238.9C304.895 238.064 305.379 234.914 305.812 231.902C306.242 228.889 307.058 223.752 307.625 220.49C308.195 217.228 309.075 211.751 309.581 208.319C310.09 204.886 310.657 200.507 310.839 198.581C311.025 196.655 311.3 194.601 311.446 194.017C311.595 193.432 312 191.171 312.348 188.996C312.695 186.82 313.182 183.807 313.429 182.301C313.679 180.795 314.03 178.056 314.209 176.215C314.389 174.374 314.447 171.772 314.34 170.434C314.231 169.095 313.993 167.381 313.81 166.63C313.624 165.878 313.119 164.372 312.68 163.283C312.241 162.193 311.199 160.276 310.367 159.022C309.535 157.766 308.167 156.074 307.329 155.261C306.492 154.446 305.053 153.195 304.13 152.48C303.207 151.768 300.057 149.757 297.122 148.013C294.191 146.269 290.995 144.441 290.026 143.945C289.054 143.452 287.068 142.094 285.608 140.926C284.149 139.76 281.154 137.022 278.954 134.84C275.447 131.365 274.868 130.65 274.283 129.049C273.914 128.045 273.415 126.472 273.171 125.55C272.927 124.628 272.562 123.782 272.357 123.669C272.153 123.554 270.922 123.246 269.624 122.985C268.326 122.723 267.263 122.44 267.263 122.355C267.263 122.269 267.915 121.542 268.71 120.733C269.506 119.926 270.992 118.387 272.013 117.309C273.031 116.235 273.957 115.048 274.07 114.671C274.213 114.181 274.118 113.916 273.738 113.74C273.445 113.606 272.452 113.518 271.529 113.542C270.532 113.57 269.018 113.916 267.796 114.397C266.666 114.842 265.636 115.17 265.511 115.128C265.386 115.085 264.777 114.708 264.158 114.291C263.543 113.871 262.821 113.153 262.559 112.693C262.272 112.191 262.013 110.734 261.907 109.042C261.757 106.668 261.575 105.917 260.728 104.249C260.176 103.16 259.356 101.586 258.909 100.75C258.461 99.9128 257.876 98.4765 257.614 97.5545C257.221 96.1882 257.196 95.5887 257.476 94.2833C257.662 93.4038 257.751 92.5488 257.665 92.3814C257.58 92.214 257.656 91.6998 257.833 91.2403C258.01 90.7808 258.439 90.1996 258.787 89.947C259.289 89.5819 259.356 89.3689 259.11 88.882C258.902 88.4803 258.899 87.9661 259.097 87.3605C259.259 86.8584 259.725 85.2152 260.13 83.7089C260.536 82.2027 260.953 80.9033 261.06 80.8181C261.166 80.7329 261.331 80.8699 261.422 81.1224C261.517 81.375 261.84 81.8193 262.144 82.1114C262.446 82.4035 263.046 82.6439 263.479 82.6439C263.948 82.6439 264.618 82.2787 265.155 81.731C265.642 81.2289 266.044 80.5777 266.044 80.2856C266.047 79.9935 266.526 79.2388 267.111 78.612C267.775 77.8999 268.634 77.3552 269.396 77.1666C270.121 76.987 270.874 76.5215 271.258 76.0254C271.8 75.3164 271.873 74.9056 271.736 73.3628C271.635 72.2461 271.748 70.7702 272.028 69.5591C272.278 68.4698 272.711 67.2374 272.991 66.8205C273.271 66.4005 273.698 65.445 273.942 64.6904C274.204 63.887 274.393 62.0643 274.405 60.2781C274.414 58.428 274.246 56.6387 273.972 55.7136C273.668 54.6912 273.012 53.6414 271.98 52.5185C271.133 51.5995 270.203 50.4675 269.917 50.0081C269.499 49.3386 269.429 48.7331 269.57 46.9651C269.664 45.7509 269.609 41.6095 269.448 37.7601C269.183 31.4551 269.079 30.5665 268.396 28.7833C267.982 27.694 267.403 26.1208 267.111 25.2839C266.818 24.4471 266.212 22.7339 265.764 21.4802C265.319 20.2235 264.39 18.4433 263.701 17.5244C263.01 16.6054 261.44 14.877 260.21 13.6902C258.979 12.5004 256.532 10.3795 254.774 8.97363C253.016 7.56778 250.767 5.86979 249.78 5.20034C248.793 4.53089 246.94 3.38976 245.664 2.66249C244.39 1.93522 242.934 1.20492 242.431 1.03756C241.928 0.870196 240.009 0.60849 238.165 0.456341C236.322 0.304193 232.276 0.121625 229.177 0.0485939C226.078 -0.0213944 223.199 -0.0153121 222.779 0.0638051Z" fill="#020202"/>
</svg>
