<svg width="241" height="530" viewBox="0 0 241 530" fill="none" xmlns="http://www.w3.org/2000/svg">
<path d="M93.554 0.211803C92.6263 0.303128 91.6554 0.567487 91.391 0.803008C91.1074 1.05776 90.7133 1.03853 90.4297 0.759751C90.1125 0.452131 89.6126 0.591522 88.9733 1.17312C88.435 1.65858 87.5698 2.05752 87.0507 2.06233C86.5316 2.06713 85.9452 1.83162 85.7529 1.54322C85.5414 1.2308 85.402 1.40864 85.402 1.97581C85.4069 2.50453 85.2963 2.7737 85.1569 2.57663C85.0175 2.37956 84.3782 2.75447 83.7342 3.41778C83.0612 4.10993 81.9894 4.63384 81.2107 4.65307C80.4657 4.6723 79.4852 4.85494 79.0381 5.06163C78.5863 5.26831 78.1009 5.68648 77.9567 5.9893C77.8125 6.29211 77.6923 6.64779 77.6923 6.78238C77.6923 6.91215 77.0963 6.78237 76.3705 6.49398C75.14 6.00371 75.0727 6.03736 75.4092 6.97464C75.6736 7.71004 75.5774 7.98402 75.0487 7.98402C74.6017 7.98402 74.4623 8.21473 74.6834 8.58484C74.9173 8.98218 74.8372 9.06229 74.4431 8.82516C74.1162 8.6281 73.4145 8.68097 72.8857 8.94533C72.357 9.20969 71.9244 9.74803 71.9244 10.147C71.9244 10.5748 71.6312 10.7718 71.2034 10.6276C70.7757 10.4834 70.4825 10.6805 70.4825 11.1083C70.4825 11.5024 69.8336 12.1513 69.0405 12.5503C68.1272 13.0069 67.685 13.5356 67.8389 13.9922C67.983 14.42 67.786 14.7132 67.3582 14.7132C66.9641 14.7132 66.6372 15.0352 66.6372 15.4342C66.6372 15.8283 66.3104 16.1552 65.9162 16.1552C65.5221 16.1552 65.2 16.3186 65.2097 16.5157C65.2145 16.7127 64.6761 17.1982 64.008 17.5971C63.3207 18.0057 62.4795 19.2073 62.071 20.3609C61.6768 21.4857 61.0664 22.5671 60.7155 22.7642C60.3646 22.9613 59.2159 24.3119 58.1536 25.7683C57.0962 27.2199 55.8417 29.7097 55.361 31.2959C54.8852 32.882 54.217 34.7181 53.871 35.3814C53.4816 36.1264 53.3038 37.7751 53.3999 39.7073C53.4912 41.4233 53.746 44.0765 53.9719 45.6002C54.1978 47.1239 54.5439 48.3688 54.741 48.364C54.938 48.364 54.9909 48.8975 54.8611 49.5608C54.7313 50.2193 54.8371 50.873 55.1014 51.0028C55.3658 51.1325 55.7167 52.1611 55.8849 53.2859C56.0483 54.4106 56.3848 57.6022 56.6347 60.3756C56.8799 63.149 57.0818 66.3934 57.0866 67.5854C57.0866 68.7774 56.9376 72.0219 56.7549 74.7953C56.4905 78.876 56.5867 80.3949 57.2548 82.7261C57.7114 84.3123 58.4949 86.4223 58.9948 87.4125C59.4995 88.4026 60.7203 90.0946 61.7105 91.1664C62.7006 92.2383 64.4358 93.4832 65.5653 93.9302C66.8823 94.4493 67.786 95.1751 68.0792 95.9441C68.3291 96.6026 68.7761 98.1167 69.0693 99.3087C69.3625 100.501 69.6798 102.01 69.7807 102.673C69.8816 103.332 70.1989 105.927 70.4825 108.441C70.7661 110.955 71.0929 114.199 71.1986 115.651C71.3092 117.103 71.5207 119.049 71.6745 119.977C71.9052 121.409 71.5735 122.284 69.4106 125.865C67.5841 128.898 66.4161 130.301 65.2193 130.912C64.1234 131.465 63.4312 132.243 63.1717 133.195C62.9602 133.988 62.2969 135.137 61.7057 135.747C60.8309 136.646 60.2925 136.805 58.8265 136.588C57.1587 136.339 56.952 136.444 56.0628 138.002C55.534 138.924 54.938 139.703 54.741 139.722C54.5439 139.746 53.8277 139.799 53.15 139.842C52.4723 139.886 50.7948 140.842 49.4249 141.967C48.055 143.092 46.9303 144.226 46.9303 144.49C46.9303 144.755 45.1471 146.154 42.9649 147.6C40.7827 149.047 36.9471 151.989 34.4332 154.137C31.9194 156.286 27.9203 159.708 25.5411 161.736C23.1618 163.77 19.5136 167.37 17.4372 169.739C15.3608 172.109 12.6066 175.781 11.3136 177.896C9.94377 180.131 8.3576 183.654 7.52126 186.308C6.72817 188.821 5.52172 194.118 4.83919 198.084C4.15185 202.049 3.29629 206.591 2.93099 208.177C2.56569 209.764 1.92641 214.416 1.51305 218.512C1.09969 222.607 0.537322 235.152 0.263347 246.39C-0.0971451 260.992 -0.0875332 270.245 0.292186 278.834C0.580579 285.443 1.22947 294.633 1.72935 299.262C2.22923 303.886 3.31071 313.513 4.12782 320.651C4.94975 327.789 5.82935 334.821 6.0841 336.272C6.34365 337.724 7.10309 343.026 7.7712 348.048C8.43931 353.071 9.29488 359.56 9.6746 362.468C10.0543 365.376 10.809 371.971 11.3473 377.128C11.8904 382.286 12.8662 389.962 13.5199 394.191C14.1784 398.421 15.2694 406.746 15.952 412.697C16.6345 418.642 17.4853 425.458 17.8506 427.837C18.2111 430.217 19.0426 434.975 19.6963 438.412C20.35 441.849 21.1431 446.501 21.4651 448.746C21.7823 450.991 22.3495 453.697 22.7292 454.754C23.1089 455.812 23.7482 458.734 24.152 461.243C24.5605 463.752 25.6132 469.054 26.5024 473.019C27.3868 476.985 28.449 481.959 28.8576 484.074C29.271 486.189 29.9391 489.107 30.3476 490.563C30.7562 492.019 31.7367 497.047 32.5202 501.738C33.3085 506.43 34.3131 510.972 34.7505 511.832C35.1879 512.693 36.351 514.581 37.3364 516.038C38.3217 517.494 39.5618 519.547 40.0954 520.604C40.6337 521.662 41.6383 523.065 42.3304 523.728C43.0418 524.406 43.5897 525.454 43.5849 526.132C43.5801 526.79 43.6859 527.819 43.8108 528.415L44.0463 529.496L178.39 529.511C179.313 523.353 179.914 517.999 180.317 513.635C180.716 509.27 181.255 503.647 181.509 501.138C181.769 498.628 182.197 493.058 182.466 488.761L182.956 480.95C186.124 476.768 187.258 475.144 187.522 474.644C187.787 474.144 188.166 473.735 188.363 473.74C188.561 473.74 188.94 472.981 189.205 472.058C189.469 471.135 189.902 470.376 190.166 470.376C190.43 470.376 190.647 470.053 190.647 469.655C190.647 469.256 190.863 468.934 191.127 468.934C191.392 468.934 191.608 468.717 191.608 468.453C191.608 468.189 192.165 467.376 192.843 466.65C193.526 465.925 194.747 464.353 195.559 463.166C196.376 461.978 197.419 460.57 197.885 460.041C198.352 459.513 198.967 458.162 199.255 457.037C199.726 455.196 200.303 454.605 205.105 451.029C208.758 448.309 210.517 446.684 210.704 445.862C210.853 445.199 210.599 443.685 210.132 442.497C209.671 441.31 208.907 438.931 208.436 437.21C207.969 435.489 207.239 433.437 206.811 432.644C206.383 431.851 206.032 430.88 206.032 430.481C206.032 430.082 205.033 426.621 203.817 422.791C202.601 418.96 201.408 414.576 201.173 413.057C200.933 411.538 199.75 407.645 198.544 404.405C197.333 401.166 195.703 396.244 194.924 393.47C194.146 390.697 193.305 387.775 193.055 386.982C192.805 386.189 191.94 383.487 191.127 380.973C190.32 378.46 189.45 376.027 189.19 375.566C188.935 375.105 188.512 373.264 188.253 371.48C187.993 369.697 187.777 367.318 187.772 366.193C187.763 364.516 187.955 364.078 188.844 363.732C189.44 363.502 192.737 362.218 196.174 360.877C199.611 359.531 205.989 356.719 210.354 354.619C214.718 352.519 220.125 350.24 222.37 349.548C224.615 348.861 227.321 348.289 228.378 348.284C229.436 348.274 231.166 347.88 232.223 347.409C233.281 346.938 234.713 345.804 235.41 344.895C236.107 343.987 237.006 342.593 237.414 341.8C237.818 341.007 238.626 337.979 239.212 335.071C240.005 331.105 240.207 328.822 240.01 325.938C239.866 323.823 239.217 320.146 238.573 317.767C237.924 315.388 236.943 311.927 236.395 310.077L235.391 306.712L237.751 304.068C235.862 299.041 234.266 295.739 232.983 293.494C231.704 291.249 230.421 288.649 230.137 287.726C229.849 286.803 229.412 285.395 229.157 284.602C228.902 283.809 227.585 280.675 226.23 277.632C224.869 274.59 222.802 269.831 221.635 267.058C220.462 264.284 218.962 260.117 218.294 257.805C217.631 255.493 216.583 252.465 215.972 251.076C215.362 249.687 214.136 247.471 213.252 246.149C212.367 244.827 210.488 242.285 209.075 240.502C206.681 237.478 206.446 236.935 205.605 232.571C205.105 229.994 204.196 226.692 203.581 225.241C202.961 223.789 201.759 221.405 200.904 219.954C199.745 217.992 199.231 216.377 198.909 213.705C198.669 211.72 198.116 209.398 197.683 208.538C197.251 207.678 196.895 206.49 196.89 205.894C196.885 205.298 196.386 203.731 195.78 202.41C195.17 201.088 193.785 198.814 192.699 197.363C191.613 195.911 189.714 192.34 188.484 189.432C187.248 186.524 185.456 182.741 184.499 181.02C183.542 179.3 181.884 177.021 180.817 175.945C179.707 174.834 177.837 173.628 176.467 173.133C175.145 172.662 171.036 170.802 167.335 169.009C163.634 167.211 159.202 165.149 157.481 164.428C155.761 163.707 152.627 161.765 150.512 160.121C148.397 158.473 145.1 156.012 143.182 154.656C141.264 153.296 137.265 151.027 134.29 149.614C131.314 148.201 128.387 146.629 127.786 146.129C127.181 145.625 126.407 144.135 126.066 142.808C125.498 140.621 125.585 139.525 127.041 130.672L128.642 120.938C134.415 113.978 136.775 110.681 137.606 109.119C138.438 107.557 139.567 104.654 140.115 102.673C140.663 100.688 141.389 96.7805 141.725 93.9879C142.062 91.1905 142.61 88.5949 142.941 88.22C143.273 87.8403 143.96 85.6966 144.475 83.4471C144.989 81.1976 145.441 78.28 145.484 76.9582C145.523 75.6364 145.412 72.2814 145.229 69.508C145.052 66.7347 144.576 63.3797 144.172 62.0579C143.509 59.8901 143.513 59.0922 144.21 53.8867C144.638 50.7144 145.061 47.0374 145.157 45.7155C145.249 44.3937 145.157 40.6062 144.955 37.3041C144.614 31.8053 144.451 31.0363 142.98 28.21C142.1 26.5133 140.245 23.9178 138.856 22.4422C137.467 20.9665 136.332 19.5967 136.332 19.3996C136.332 19.2025 135.198 17.9048 133.809 16.5157C132.42 15.1266 129.666 12.7906 127.681 11.3246C125.7 9.85857 122.24 7.45049 119.99 5.96526C117.741 4.48484 115.039 2.89386 113.982 2.43243C112.924 1.971 111.521 1.49996 110.858 1.38461C110.199 1.26925 109.276 0.976045 108.815 0.735717C108.353 0.490582 106.782 0.187769 105.33 0.0531855C103.854 -0.0813984 102.206 0.0483818 101.605 0.341582C100.966 0.654009 100.427 0.687654 100.283 0.423293C100.153 0.178158 98.9614 -0.0044942 97.6396 0.0147321C96.3177 0.0387649 94.4816 0.125285 93.554 0.211803Z" fill="black"/>
</svg>
