<svg width="245" height="501" viewBox="0 0 245 501" fill="none" xmlns="http://www.w3.org/2000/svg">
<path fill-rule="evenodd" clip-rule="evenodd" d="M102.993 0.54565C92.7618 1.7363 82.361 6.68262 74.5674 14.0657C65.6376 22.5254 64.4685 25.539 63.8537 41.6907C63.5796 48.8767 62.9761 54.52 62.5121 54.2336C60.7498 53.1446 56.6523 55.0619 55.5438 57.4945C54.9084 58.8894 54.389 62.174 54.389 64.7954C54.389 73.4009 65.614 88.9163 72.8933 90.3728C76.2056 91.0348 76.5813 92.0695 77.8643 104.082C79.134 115.966 78.9831 116.244 71.0643 116.599C63.5704 116.934 63.9645 116.568 60.3187 126.61C58.0031 132.989 57.7424 133.282 53.4766 134.321C50.8972 134.949 48.1207 136.517 46.8397 138.068C45.6285 139.536 43.1374 141.02 41.3022 141.366C39.468 141.712 35.9135 142.931 33.4039 144.074C30.8943 145.218 26.9641 146.153 24.6691 146.153C21.0797 146.153 19.6642 146.905 14.5229 151.541C3.72495 161.28 0.0185454 169.501 6.9798e-05 183.758C-0.00814156 189.825 0.707274 194.457 2.61744 200.693C5.86606 211.303 7.51449 218.351 10.176 233.013C11.3153 239.293 13.8598 250.378 15.8295 257.647C19.6714 271.825 21.6175 274.827 26.5946 274.249L29.2418 273.942L30.3349 296.01L31.428 318.078L35.8375 330.799C39.9432 342.644 40.2624 344.341 40.4636 355.433C40.6278 364.489 41.1985 368.824 42.8418 373.509L45.0035 379.671L42.9003 385.826C41.684 389.387 40.8793 394.143 40.9902 397.112C41.4377 409.118 41.2693 413.321 39.7348 428.418C38.846 437.168 36.9296 448.945 35.4762 454.59C32.3292 466.813 32.244 469.007 34.7567 473.128C36.5386 476.05 36.5704 476.759 35.2104 483.392C34.4067 487.31 33.0528 491.583 32.2019 492.886C31.351 494.19 30.7988 496.269 30.9743 497.505L31.2946 499.754L123.929 500.016C174.878 500.161 216.563 500.022 216.563 499.709C216.563 499.395 215.889 497.834 215.064 496.239C213.362 492.948 209.389 460.577 208.881 445.867C208.696 440.504 208.066 429.909 207.481 422.322C206.896 414.736 206.603 408.228 206.831 407.86C207.058 407.492 207.715 401.394 208.29 394.309C209.473 379.74 207.839 357.809 204.225 339.747C203.107 334.164 202.194 329.018 202.194 328.313C202.194 327.608 203.925 326.711 206.043 326.321C208.16 325.931 212.663 324.756 216.05 323.71C219.437 322.664 225.582 321.237 229.705 320.539C239.645 318.856 241.069 316.776 243.693 300.116C245.746 287.073 245.539 284.327 241.936 276.744C241.123 275.033 241.15 274.092 242.039 273.203C243.558 271.684 243.626 264.977 242.137 263.488C241.336 262.687 241.48 261.489 242.65 259.228C244.595 255.466 244.686 253.517 243.057 250.523C242.386 249.29 241.957 246.812 242.104 245.014C242.472 240.479 240.806 237.888 237.036 237.133C233.942 236.514 233.853 236.351 234.511 232.456C235.414 227.117 232.442 223.76 227.341 224.356L223.949 224.752L217.078 204.184C213.298 192.872 208.708 179.691 206.878 174.892C205.047 170.094 202.737 163.954 201.744 161.249C200.383 157.543 198.634 155.352 194.65 152.367C187.759 147.202 173.07 141.888 163.19 140.987C153.245 140.079 143.741 136.024 137.325 129.949C134.614 127.383 132.397 124.677 132.397 123.936C132.397 123.194 134.2 121.666 136.405 120.541C140.321 118.544 144.714 114.038 144.714 112.019C144.714 111.464 146.877 106.56 149.519 101.124C154.252 91.389 154.331 91.0564 154.777 79.2002C155.097 70.6809 155.643 66.8175 156.644 65.9871C157.451 65.3179 158.057 62.8853 158.057 60.3213C158.057 57.0111 158.463 55.8276 159.597 55.8276C160.452 55.8276 161.137 54.9151 161.137 53.7748C161.137 52.6457 160.493 51.7219 159.707 51.7219C158.921 51.7219 158.037 51.0948 157.742 50.328C157.448 49.5613 155.853 48.6632 154.196 48.3327C151.235 47.7404 151.175 47.5957 150.548 39.4675C149.518 26.0963 144.072 17.1911 130.344 6.41985C122.837 0.531279 115.91 -0.957029 102.993 0.54565ZM155.823 58.7888C156.124 61.9327 154.688 65.1167 153.502 63.9322C153.236 63.6664 152.701 61.4565 152.312 59.0208C151.675 55.0403 151.799 54.6308 153.547 54.9623C154.909 55.221 155.591 56.3665 155.823 58.7888Z" fill="#040404"/>
</svg>
