<svg width="248" height="580" viewBox="0 0 248 580" fill="none" xmlns="http://www.w3.org/2000/svg">
<path fill-rule="evenodd" clip-rule="evenodd" d="M133.712 1.12357C133.052 1.78282 132.512 1.92167 132.512 1.43223C132.512 0.942784 131.928 1.34033 131.213 2.31622C130.385 3.44793 127.942 4.33092 124.463 4.75544C119.92 5.30981 119.012 5.75131 119.01 7.40143C119.009 8.91271 118.125 9.52402 115.273 9.98749C111.755 10.5588 106.512 14.7301 106.512 16.9576C106.512 17.478 106.073 17.9045 105.537 17.9045C105.001 17.9045 103.6 20.0141 102.424 22.5931C101.248 25.1712 99.3695 28.5184 98.2505 30.0307C96.4105 32.5159 96.2915 33.5756 97.0125 41.0741C98.1875 53.3062 98.4095 68.5169 97.5115 75.3781C96.8905 80.1267 97.1995 83.5818 98.9665 91.6146C100.201 97.2272 101.891 102.603 102.721 103.562C103.552 104.521 104.786 108.207 105.463 111.753C106.139 115.299 108.195 121.179 110.031 124.82C112.423 129.564 113.46 133.102 113.69 137.308L114.012 143.174L108.512 144.474C105.487 145.189 96.9365 146.722 89.5115 147.88C76.9295 149.841 75.7565 150.214 72.2585 153.365C70.1945 155.225 68.0095 156.747 67.4025 156.747C64.0735 156.747 43.5125 180.163 43.5115 183.955C43.5105 185.628 36.9745 204.001 34.3575 209.686C31.7045 215.448 26.2385 224.232 20.4575 232.019C10.8545 244.956 3.74554 259.159 1.06454 270.762C-0.0984644 275.796 -0.250464 280.766 0.327536 294.783C1.02154 311.59 1.17553 312.582 3.46953 315.021C4.79553 316.432 7.70353 318.076 9.92953 318.675C12.1565 319.274 16.2045 320.891 18.9265 322.268C28.0605 326.892 42.9515 332.761 49.9265 334.488C55.1685 335.786 57.0315 336.715 57.6285 338.328C58.0725 339.527 57.7425 344.95 56.8735 350.736C55.3295 361.02 55.5775 369.792 57.5895 376.116C58.2545 378.209 58.2365 380.67 57.5325 383.607C56.9565 386.015 56.0585 395.625 55.5385 404.964C55.0175 414.303 53.8615 426.889 52.9705 432.932C49.8085 454.365 49.4635 460.146 50.0515 481.877C50.7625 508.182 56.0185 570.995 58.0405 577.36C58.6285 579.21 60.6015 579.266 125.858 579.266H193.069L194.865 572.303C195.9 568.29 197.049 558.446 197.576 549.079C198.483 532.946 199.7 525.912 203.413 515.339C207.191 504.577 207.999 498.24 206.562 490.634C205.242 483.646 205.312 482.16 207.507 470.39C208.431 465.434 208.459 460.23 207.626 448.415C207.026 439.899 206.325 424.86 206.07 414.995C205.647 398.636 205.773 396.786 207.506 393.987C210.486 389.17 211.743 382.061 210.457 377.292C209.573 374.011 209.699 371.991 211.114 366.771C212.709 360.882 212.744 359.231 211.511 348.176C209.381 329.089 209.562 326.101 213.331 318.063C215.135 314.217 218.051 307.952 219.811 304.142C221.572 300.331 224.053 295.661 225.325 293.767C226.597 291.871 228.339 288.472 229.197 286.212C230.054 283.953 233.813 275.811 237.55 268.12C247.688 247.254 247.769 246.895 247.162 225.412C246.715 209.585 246.299 206.006 244.003 198.199C239.181 181.804 233.437 174.868 213.707 161.614C206.175 156.555 198.55 151.156 196.763 149.618C194.976 148.079 190.964 145.191 187.847 143.2C180.163 138.29 178.588 136.189 178.532 130.776C178.459 123.737 182.658 107.918 184.783 107.23C186.881 106.55 191.096 98.6346 191.955 93.7632C192.288 91.8703 192.698 86.8181 192.866 82.5349C193.098 76.5757 192.834 74.56 191.737 73.9467C190.595 73.3084 190.357 70.7344 190.562 61.2571C190.929 44.2365 190.935 44.3444 189.083 33.5707C187.265 22.9987 185.655 20.5325 177.762 16.2264C174.373 14.3785 173.827 13.4506 175.512 12.4107C176.994 11.4958 176.726 8.89574 175.209 9.47707C174.493 9.75176 172.13 9.19539 169.959 8.24147C167.788 7.28756 165.337 6.39757 164.512 6.26473C163.687 6.13088 159.103 4.87531 154.324 3.4739C147.694 1.52912 145.03 1.15654 143.074 1.89869C141.665 2.43408 140.512 2.48203 140.512 2.00457C140.512 1.52812 139.814 0.869861 138.96 0.542234C137.919 0.143687 137.638 0.354453 138.107 1.18451C138.652 2.15041 138.509 2.14741 137.459 1.17352C135.784 -0.378715 135.224 -0.386709 133.712 1.12357Z" fill="#030303"/>
</svg>
