<svg width="248" height="515" viewBox="0 0 248 515" fill="none" xmlns="http://www.w3.org/2000/svg">
<path d="M99.5687 0.448823C98.3146 0.663161 95.0312 1.47034 92.2721 2.24105C89.5131 3.01631 86.3345 3.90558 85.2036 4.22025C84.0726 4.53491 81.8152 5.52452 80.1871 6.42291C78.5591 7.3213 75.7864 9.35523 74.0306 10.9422C72.2749 12.5338 69.2879 15.4798 67.3953 17.4909C65.5027 19.5066 62.7984 22.895 61.3893 25.0292C59.9801 27.1635 58.1423 30.3421 57.3077 32.0978C55.8667 35.1305 55.7891 35.5409 55.8165 40.3065C55.8347 44.0415 56.1084 46.3125 56.8836 49.1992C57.481 51.4065 57.8231 53.6638 57.6771 54.4437C57.5403 55.1961 57.0843 56.1219 56.6693 56.4958C56.2497 56.8698 55.593 57.7955 55.2145 58.548C54.7813 59.4008 54.4347 61.722 54.3025 64.7045L54.0836 69.4929C57.2485 76.9126 58.8674 80.8893 59.7156 83.1193C60.8648 86.12 61.7039 87.5611 62.9717 88.7058C64.3125 89.9097 65.0786 90.2426 66.506 90.2426C67.9197 90.2426 68.3393 90.4205 68.3758 91.0407C68.4031 91.4785 68.4852 93.4805 68.5582 95.487C68.6357 97.4936 68.9321 100.367 69.2195 101.872C69.5068 103.376 69.9445 105.944 70.1908 107.572C70.4325 109.2 70.656 113.615 70.6788 117.377C70.7198 123.656 70.6195 124.537 69.4748 128.094C68.7862 130.228 67.7556 132.891 67.181 134.022C66.6064 135.153 65.4982 136.945 64.7229 138.013C63.9476 139.08 63.0037 139.951 62.6297 139.951C62.2557 139.951 61.3619 140.822 60.6505 141.889C59.8661 143.056 58.7351 144.064 57.8003 144.424C56.9429 144.748 54.909 145.697 53.2809 146.531C51.6529 147.366 47.8541 149.03 44.8442 150.234C41.8344 151.438 37.7301 153.39 35.7235 154.567C33.7169 155.743 30.5383 157.941 28.6549 159.446C26.776 160.951 21.7277 165.644 17.4455 169.876C13.1587 174.112 8.78535 178.869 7.72278 180.451C6.66478 182.034 5.40155 184.597 4.91815 186.152C4.43931 187.702 3.61844 191.027 3.10312 193.535C2.36434 197.124 2.07248 201.064 1.72133 212.005C1.47963 219.652 1.08287 227.145 0.841173 228.65C0.594913 230.155 0.26201 235.285 0.0978365 240.051C-0.0891389 245.569 -0.0070572 250.704 0.334971 254.188C0.80925 259.022 1.04183 259.948 2.33698 262.114C3.1396 263.464 4.63085 265.516 5.65237 266.674C6.66933 267.833 8.03289 269.703 8.68958 270.833C9.34172 271.964 10.3313 274.527 10.8831 276.534C11.4349 278.54 11.9867 280.593 12.1053 281.094C12.2239 281.596 12.7438 283.338 13.2545 284.971C13.7698 286.603 14.5953 288.756 15.0969 289.759C15.5986 290.762 16.6976 292.354 17.5413 293.293C18.3849 294.233 19.8215 296.49 20.7335 298.31C21.6456 300.129 23.1004 303.668 23.976 306.176C24.847 308.685 26.7897 313.61 28.2946 317.121C29.7996 320.633 31.5553 324.532 32.1892 325.786C32.8276 327.04 34.0544 329.092 34.9163 330.346L36.4759 332.627C34.2778 342.167 33.5527 345.35 33.4433 345.852C33.3339 346.353 32.8094 349.226 32.2713 352.236C31.6784 355.57 31.1585 361.097 30.9396 366.373C30.7025 372.15 30.2738 376.482 29.6536 379.37C29.1429 381.755 28.4907 385.86 28.2034 388.491C27.9161 391.122 27.5011 394.1 27.2777 395.104C27.0542 396.107 26.5617 399.906 26.1832 403.54C25.8047 407.175 24.9747 413.642 24.3408 417.906C23.7069 422.17 22.9818 429.557 22.7355 434.323C22.4847 439.089 22.2613 446.066 22.2385 449.828C22.2157 453.591 22.0378 458.311 21.8417 460.317C21.6456 462.324 20.9616 466.223 20.3185 468.982C19.6801 471.741 18.4169 476.205 17.5185 478.901C16.6201 481.596 15.8859 484.318 15.8859 484.943C15.8859 485.572 16.2188 486.749 16.6201 487.565C17.0259 488.382 17.938 489.663 18.6494 490.416L19.9446 491.784C19.3153 498.497 19.0872 503.527 19.0371 507.289L18.9413 514.13L201.721 514.348C201.548 512.41 201.178 508.26 200.786 503.869C200.394 499.482 199.473 491.683 198.743 486.539C198.009 481.395 196.586 471.599 195.578 464.763C194.566 457.927 193.74 451.616 193.74 450.74C193.74 449.354 194.087 448.852 196.363 446.951C197.804 445.742 200.312 443.74 201.931 442.504C203.55 441.264 206.683 438.149 208.885 435.577C211.088 433.005 213.127 430.442 213.409 429.877C213.719 429.261 213.806 428.025 213.628 426.798C213.464 425.672 212.839 422.489 212.242 419.73C211.64 416.971 210.596 411.535 209.916 407.645C209.241 403.755 208.174 398.624 207.554 396.244C206.934 393.859 206.263 390.885 206.063 389.631C205.862 388.377 205.16 384.683 204.494 381.423C203.833 378.162 202.364 370.879 201.229 365.233C200.093 359.592 198.898 353.536 198.565 351.78C198.237 350.024 197.617 346.841 197.188 344.712C196.609 341.825 196.541 340.717 196.928 340.379C197.215 340.128 197.69 339.891 197.986 339.855C198.287 339.818 199.965 339.362 201.721 338.847C203.477 338.332 208.092 336.767 211.982 335.372C215.867 333.976 220.487 332.344 222.243 331.742C223.999 331.14 226.461 330.506 227.715 330.333C228.969 330.159 230.816 329.658 231.82 329.215C232.823 328.773 234.177 327.82 234.825 327.099C235.477 326.379 236.234 325.17 236.512 324.418C236.786 323.665 237.438 320.893 237.958 318.261C238.706 314.449 238.897 311.731 238.893 304.922L238.888 296.372C241.187 295.081 243.034 294.005 244.479 293.143C245.925 292.285 247.106 291.278 247.097 290.899C247.092 290.521 246.271 287.908 245.268 285.085C244.269 282.262 243.161 279.494 242.81 278.928C242.454 278.363 241.2 275.439 240.024 272.43C238.843 269.42 237.456 266.136 236.941 265.133C236.43 264.13 234.788 260.335 233.302 256.696C231.811 253.057 230.397 248.852 230.155 247.348C229.918 245.843 229.38 243.074 228.965 241.191C228.504 239.121 227.2 235.787 225.663 232.754C224.263 229.995 221.714 225.791 219.99 223.406C217.263 219.625 216.702 218.494 215.594 214.513C214.901 212.005 214.089 209.337 213.792 208.584C213.501 207.832 212.871 205.369 212.397 203.112C211.923 200.855 210.796 197.471 209.889 195.587C208.904 193.544 208.106 191.068 207.905 189.431C207.663 187.447 207.148 186.065 206.035 184.414C205.192 183.16 203.55 181.108 202.392 179.854C201.233 178.6 199.801 176.753 199.213 175.75C198.625 174.746 197.193 172.694 196.039 171.189C194.881 169.684 193.335 167.427 192.605 166.173C191.871 164.919 190.544 163.104 189.654 162.141C188.765 161.17 186.713 159.779 185.076 159.031C183.443 158.283 179.954 156.578 177.323 155.246C174.687 153.915 170.893 152.314 168.886 151.689C166.88 151.064 163.081 149.924 160.45 149.149C157.814 148.378 154.736 147.617 153.609 147.453C152.478 147.288 149.915 146.367 147.909 145.405C145.902 144.438 143.129 143.403 141.752 143.097C140.37 142.796 138.013 141.98 136.508 141.291C135.003 140.603 132.951 139.896 131.947 139.718C130.944 139.54 129.343 138.852 128.395 138.19C126.986 137.21 126.671 136.713 126.685 135.504C126.694 134.688 126.931 133.457 127.209 132.768C127.483 132.079 128.518 130.693 129.503 129.69C130.484 128.687 131.286 127.505 131.277 127.068C131.268 126.63 131.469 126.27 131.719 126.27C131.97 126.27 132.175 126.064 132.175 125.814C132.175 125.563 132.686 124.227 133.316 122.849C133.94 121.472 134.456 120.031 134.456 119.657C134.456 119.283 134.916 118.763 135.482 118.512C136.047 118.257 137.046 116.971 137.703 115.662C138.359 114.349 139.367 112.351 139.937 111.22C140.681 109.761 141.096 107.85 141.378 104.608C141.602 102.1 141.976 99.5367 142.217 98.9073C142.454 98.2826 142.755 96.5359 142.879 95.031C143.006 93.5261 143.316 87.1644 143.576 80.8938C143.832 74.6233 144.27 67.5456 144.543 65.1605C144.917 61.9409 145.46 59.8888 146.664 57.1799C148.182 53.7687 148.296 53.1759 148.438 48.0591C148.52 45.0493 148.748 41.5606 148.944 40.3065C149.176 38.8289 149.099 37.2237 148.725 35.7461C148.41 34.492 148.269 32.9552 148.41 32.3258C148.581 31.5658 148.388 30.903 147.831 30.3375C147.371 29.8678 146.997 29.1199 146.997 28.673C146.997 28.2261 146.431 27.3277 145.743 26.6755C145.054 26.0188 144.493 25.2299 144.502 24.9152C144.507 24.6006 143.398 22.8083 142.035 20.9249C140.069 18.2115 139.052 17.2584 137.119 16.3052C135.778 15.644 134.273 14.9827 133.772 14.8277C133.27 14.6726 132.308 13.6739 131.637 12.6068C130.967 11.5397 129.941 10.2171 129.357 9.67446C128.773 9.12722 126.452 7.53108 124.195 6.12192C121.937 4.71277 118.959 3.144 117.582 2.63324C116.2 2.12248 113.072 1.31073 110.628 0.827328C108.183 0.343929 105.205 -0.0300211 104.015 0.00190151C102.825 0.0292638 100.823 0.229925 99.5687 0.448823Z" fill="black"/>
</svg>
