<svg width="262" height="551" viewBox="0 0 262 551" fill="none" xmlns="http://www.w3.org/2000/svg">
<path fill-rule="evenodd" clip-rule="evenodd" d="M134.281 1.36634C132.66 2.61109 130.173 3.22447 126.686 3.23945C118.196 3.27542 115.641 4.69799 111.386 11.7529C110.061 13.9507 108.676 15.9737 108.309 16.2484C107.941 16.5231 107.327 17.8718 106.943 19.2454C106.559 20.619 105.878 22.642 105.429 23.7409C103.723 27.9187 102.589 40.3322 102.42 56.6877C102.297 68.5259 101.885 73.8735 101.057 74.386C100.265 74.8775 99.9292 78.0383 100.044 83.8964C100.268 95.276 102.064 104.18 104.581 106.392C105.794 107.457 107.78 112.523 109.744 119.559C111.5 125.848 113.777 131.923 114.805 133.058C116.647 135.091 116.623 135.171 113.282 138.373C106.167 145.19 98.7572 151.363 95.8712 152.877C94.1922 153.759 88.7092 154.772 83.4152 155.179L73.9602 155.906L65.4132 164.998C60.7132 169.999 56.3832 174.09 55.7932 174.09C54.0932 174.09 50.8512 178.145 48.1102 183.697C46.7232 186.508 43.9642 191.167 41.9792 194.049C39.9952 196.931 38.3712 200.305 38.3712 201.547C38.3712 204.418 34.8672 212.395 32.8832 214.04C32.0512 214.729 31.3712 215.922 31.3712 216.691C31.3712 217.459 30.2592 218.595 28.9002 219.213C27.4712 219.864 25.9512 221.784 25.2962 223.766C24.4932 226.196 22.6672 228.155 19.0172 230.502C12.1602 234.91 9.7512 237.766 9.0602 242.306C8.7442 244.386 7.2892 248.657 5.8282 251.797C4.1532 255.393 2.85119 260.464 2.30819 265.498C1.83319 269.894 1.0292 276.187 0.520198 279.484C-1.1598 290.366 1.36019 301.343 6.19519 304.196C7.67119 305.067 11.7742 306.305 15.3122 306.945C18.8502 307.587 23.7982 309.123 26.3082 310.361C28.8182 311.598 34.6232 313.444 39.2092 314.463C46.2202 316.019 48.2582 316.125 52.0082 315.123C56.6152 313.892 58.7992 314.405 62.4542 317.579C63.8932 318.827 63.8312 319.749 61.7782 327.689C58.4722 340.476 58.3402 341.007 57.2502 345.917C56.7012 348.39 55.6172 352.885 54.8422 355.907C51.5992 368.54 47.1722 390.642 45.8112 400.984C45.0102 407.082 44.1532 412.393 43.9092 412.789C43.6642 413.185 42.5522 419.541 41.4372 426.915C40.3222 434.289 38.5212 443.2 37.4362 446.717C36.0632 451.167 35.7532 453.654 36.4172 454.894C36.9422 455.873 37.3712 457.794 37.3712 459.161C37.3712 460.528 38.4962 462.983 39.8712 464.616C41.2462 466.248 42.3712 467.991 42.3712 468.489C42.3712 468.987 44.3402 470.35 46.7472 471.518L51.1222 473.642L51.7402 484.954C52.0802 491.175 52.8252 506.606 53.3972 519.243C53.9682 531.88 54.9302 544.131 55.5332 546.466L56.6312 550.711H137.117H217.604L217.014 544.468C216.69 541.034 216.13 531.817 215.77 523.988C215.389 515.716 214.701 509.753 214.126 509.753C213.029 509.753 213.09 509.42 216.801 495.267C219.876 483.542 221.068 478.154 222.991 467.295C225.568 452.738 226.249 449.347 227.338 445.654C230.78 433.98 232.417 400.127 230.446 381.382C227.344 351.891 227.493 344.651 231.485 330.818C232.218 328.281 232.699 321.63 232.628 315.012L232.506 303.588L237.834 290.037C240.764 282.585 243.616 274.913 244.173 272.99C244.729 271.067 246.541 265.898 248.2 261.502C263.709 220.414 264.572 210.289 254.792 184.168C250.853 173.647 247.231 167.445 241.643 161.651C238.967 158.877 235.593 154.993 234.144 153.019C232.315 150.527 228.898 148.162 222.961 145.277C218.259 142.992 213.99 141.123 213.475 141.123C212.959 141.123 212.388 140.786 212.204 140.374C211.547 138.895 204.594 134.224 202.134 133.607C199.89 133.044 193.79 124.786 189.576 116.608C188.998 115.488 187.449 113.994 186.132 113.291C184.182 112.248 183.825 111.422 184.205 108.835C184.461 107.088 185.378 105.143 186.242 104.512C188.042 103.197 190.262 90.1541 190.329 80.5068C190.365 75.1972 190.044 74.0783 188.029 72.4949C185.937 70.8505 185.627 69.5928 185.121 60.6837C184.423 48.3991 178.113 19.2454 176.153 19.2454C175.723 19.2454 175.368 18.4592 175.364 17.4971C175.36 16.5351 173.785 14.679 171.864 13.3723C169.943 12.0656 168.371 10.6041 168.371 10.1255C168.371 9.64702 167.953 9.25541 167.443 9.25541C166.932 9.25541 163.895 7.71496 160.693 5.83185C156.621 3.43726 153.067 2.20949 148.871 1.74995C145.571 1.38732 141.481 0.736974 139.781 0.30341C137.434 -0.295988 136.112 -0.0402493 134.281 1.36634Z" fill="black"/>
</svg>
