<svg width="235" height="464" viewBox="0 0 235 464" fill="none" xmlns="http://www.w3.org/2000/svg">
<path opacity="0.99" fill-rule="evenodd" clip-rule="evenodd" d="M84.4325 0.04393L89.1439 2.37071C91.7352 3.64774 94.7852 4.91238 95.9217 5.18101C97.0582 5.44551 98.7775 5.56124 99.7445 5.43725C101.133 5.25954 101.501 5.3422 101.501 5.82987C101.501 6.16876 101.315 6.44979 101.088 6.44979C100.86 6.44979 100.633 6.61097 100.579 6.80934C100.53 7.00772 101.691 7.49126 103.162 7.88801C104.638 8.28476 107.7 9.35102 109.973 10.252C112.246 11.1529 115.503 12.7399 117.206 13.7731C118.913 14.8105 121.702 16.6868 123.405 17.9431C125.112 19.1995 127.728 21.4519 129.22 22.948C130.712 24.4441 132.749 26.8783 133.745 28.3537C134.741 29.8291 136.465 33.0858 137.568 35.5861C138.676 38.0865 139.961 41.5291 140.432 43.2318C141.102 45.6702 141.283 47.563 141.288 52.1174C141.292 56.3246 141.097 58.6348 140.573 60.5896C140.176 62.065 139.312 64.6729 138.651 66.3756C137.99 68.0824 137.262 69.8017 137.039 70.1984C136.816 70.5952 136.63 71.2027 136.63 71.5416C136.63 71.8805 136.378 72.3929 136.072 72.6781C135.762 72.9633 135.39 74.1701 135.245 75.3644C134.993 77.406 135.039 77.559 136.01 77.9474C136.58 78.1747 137.043 78.5922 137.039 78.8773C137.039 79.1625 137.634 80.1378 138.362 81.0471C139.225 82.1298 139.655 83.0928 139.606 83.8367C139.556 84.5351 139.763 85.0517 140.143 85.1799C140.486 85.2915 140.763 85.527 140.767 85.6965C140.767 85.8659 139.928 86.4734 138.899 87.0396C137.87 87.61 137.105 88.2588 137.196 88.4861C137.291 88.7134 137.659 89.6433 138.023 90.5525C138.382 91.4617 139.139 92.4867 139.705 92.8256C140.519 93.3132 140.618 93.5323 140.188 93.8588C139.887 94.0861 139.519 94.5985 139.374 94.9953C139.213 95.4375 139.308 95.7227 139.626 95.7268C139.96 95.7323 139.925 95.8522 139.523 96.0864C138.99 96.3881 139.006 96.4748 139.626 96.698C140.048 96.8509 140.403 96.7435 140.478 96.4418C140.581 96.0285 140.664 96.0285 140.891 96.4418C141.048 96.7269 140.928 97.1898 140.626 97.475C140.325 97.7601 140.139 98.223 140.213 98.5082C140.3 98.8388 139.899 99.0248 139.11 99.0248C137.895 99.0248 137.866 99.0744 137.593 101.608C137.37 103.695 137.068 104.459 136.043 105.588C135.345 106.352 133.563 107.518 132.084 108.179C130.269 108.989 128.728 109.373 127.331 109.369C126.195 109.365 124.149 108.997 122.785 108.547C121.421 108.096 119.652 107.295 118.859 106.766C118.065 106.237 117.04 105.654 116.586 105.472C115.916 105.203 115.817 105.265 116.069 105.803C116.338 106.377 116.156 106.423 114.718 106.154C113.296 105.889 113.06 105.947 113.065 106.567C113.069 107.009 112.672 107.369 112.04 107.497C111.085 107.687 111.023 107.836 111.238 109.46C111.366 110.427 111.651 112.795 111.874 114.729C112.093 116.664 112.453 118.941 112.672 119.792C112.895 120.644 113.875 122.503 114.858 123.925C115.842 125.347 117.607 127.297 120.925 130.021L124.955 130.029C127.17 130.029 129.261 130.211 129.604 130.43C129.947 130.645 130.691 131.806 131.257 133.005C131.923 134.414 132.782 135.48 133.679 136.013C134.444 136.468 135.841 137.514 136.779 138.332C137.721 139.154 140.349 140.952 142.622 142.333C144.896 143.709 147.871 145.354 149.235 145.982C150.599 146.61 152.74 147.726 153.988 148.461C155.236 149.197 157.286 150.082 158.534 150.429C159.898 150.805 161.873 151.855 163.468 153.041C164.931 154.132 167.047 156.14 168.172 157.504C169.296 158.868 170.693 160.819 171.284 161.844C171.87 162.868 172.664 164.538 173.048 165.563C173.433 166.588 174.057 168.911 174.437 170.729C175.04 173.643 175.433 174.453 177.718 177.548C179.144 179.478 180.872 181.896 181.558 182.921C182.244 183.946 183.273 185.711 183.843 186.847C184.413 187.984 186.224 190.773 187.868 193.046C189.509 195.319 191.237 197.923 191.7 198.832C192.167 199.741 193.15 201.415 193.882 202.552C194.617 203.688 195.543 205.643 195.944 206.891C196.341 208.139 197.081 210.189 197.585 211.437C198.085 212.685 200.432 216.624 202.796 220.182C205.16 223.745 208.156 228.394 209.454 230.514C210.752 232.639 213.004 236.697 214.463 239.54C215.918 242.38 217.898 245.913 218.86 247.393C219.828 248.872 222.349 253.613 224.469 257.931C226.589 262.25 228.8 267.226 229.383 268.987C229.965 270.747 230.445 272.843 230.445 273.636C230.445 274.43 231.069 277.732 231.833 280.972C232.598 284.212 233.553 288.626 233.953 290.787C234.354 292.949 234.565 294.945 234.425 295.23C234.28 295.515 233.139 296.119 231.891 296.573C230.643 297.028 228.548 297.503 227.242 297.631C224.927 297.859 224.721 297.991 219.493 302.434C216.538 304.946 211.607 309.447 208.541 312.435C205.474 315.423 200.916 319.709 198.415 321.957C195.915 324.205 190.96 328.202 187.406 330.838C183.856 333.471 178.384 337.302 169.56 343.067L169.825 346.787C169.994 349.126 170.535 351.887 171.292 354.226C171.953 356.272 172.999 359.247 173.614 360.838C174.296 362.607 174.825 364.938 174.966 366.831C175.115 368.835 175.003 370.658 174.643 371.997C174.234 373.514 173.47 374.725 171.767 376.543C170.494 377.907 169.015 379.953 167.51 383.156L168.403 387.288C168.895 389.561 169.568 393.281 169.903 395.554C170.238 397.827 170.515 401.084 170.511 402.786C170.511 405.704 170.585 405.952 171.755 407.023C172.573 407.771 172.994 408.548 172.986 409.296C172.978 409.92 172.581 411.085 172.106 411.879C171.312 413.209 171.284 413.519 171.742 415.805C172.019 417.169 172.379 420.797 172.544 423.864C172.767 428.017 173.023 429.708 173.54 430.476C173.92 431.047 174.263 432.163 174.3 432.956C174.338 433.75 174.16 435.056 173.904 435.849C173.647 436.642 173.462 437.853 173.486 438.535C173.515 439.217 173.222 440.333 172.837 441.015C172.453 441.697 171.726 442.908 171.226 443.701C170.399 445.011 170.292 445.85 170.081 452.587C169.907 458.319 169.692 460.381 168.453 463.126H15.9518L15.7658 461.369C15.6666 460.402 15.3815 456.451 15.1418 452.587C14.8979 448.723 14.7078 438.961 14.7119 430.89C14.7202 421.892 14.9558 413.342 15.3195 408.779C15.6501 404.688 16.2121 399.017 16.5717 396.174C16.9313 393.335 17.4148 389.801 17.6462 388.322C17.8777 386.842 18.2372 383.962 18.4439 381.916C18.6546 379.87 19.2952 376.708 19.8697 374.89C20.4442 373.072 20.9112 371.257 20.9112 370.861C20.9112 370.464 20.7706 369.831 20.6012 369.455C20.4317 369.079 18.7125 367.459 16.7783 365.856C14.8483 364.252 13.0877 362.653 12.8646 362.301C12.6455 361.95 10.8808 359.929 8.9384 357.809C7.00011 355.693 4.57828 353.428 3.55334 352.784C2.52841 352.139 1.46214 351.126 1.17698 350.539C0.891813 349.953 0.664504 348.589 0.668637 347.51C0.67277 346.431 0.474396 344.989 0.23056 344.307C-0.0835339 343.419 -0.0793981 342.427 0.259492 340.794C0.515727 339.546 0.875286 332.57 1.38775 312.071L3.06568 306.492C3.99143 303.425 5.10315 299.888 5.54123 298.64C5.9793 297.392 6.80587 294.602 7.3762 292.44C7.94652 290.279 8.90947 286.283 9.51699 283.555C10.1245 280.827 10.8726 277.48 11.1784 276.116C11.6826 273.88 11.6165 272.33 10.5006 260.411C9.36408 248.232 9.28555 246.302 9.50459 236.028C9.64924 229.382 9.99639 223.241 10.3683 220.839C10.7114 218.624 11.4388 214.533 11.9884 211.747C12.848 207.387 12.9555 205.908 12.7695 201.105C12.5877 196.489 12.7075 194.67 13.4514 190.567C13.9474 187.839 14.8153 183.285 15.3773 180.441C15.9394 177.602 17.2536 172.114 18.2951 168.249C19.3366 164.385 20.5144 160.48 20.9112 159.57C21.3079 158.661 22.4734 156.801 23.5066 155.438C24.5398 154.074 27.7716 150.788 30.6894 148.139C34.9007 144.316 36.6572 143.014 39.1988 141.837C41.3975 140.816 43.4391 140.225 45.708 139.94C47.5637 139.708 50.4194 138.96 52.2172 138.241C53.9778 137.534 56.6311 136.497 58.1065 135.939C59.586 135.385 61.5367 134.493 62.4459 133.964C63.3551 133.435 64.4173 132.653 64.8016 132.232C65.3885 131.595 65.5166 130.509 65.5579 125.681C65.6034 120.379 65.5207 119.705 64.595 117.622C64.0412 116.374 63.4419 114.701 63.2683 113.903C63.0948 113.105 62.6526 111.853 62.2889 111.113C61.921 110.378 61.2474 109.563 60.7928 109.307C60.1439 108.944 58.8462 109.084 54.8002 109.96C51.961 110.576 47.9604 111.184 45.9147 111.312C43.4102 111.469 41.6537 111.369 40.542 111.01C39.6328 110.717 38.426 110.113 37.8557 109.671C37.2895 109.229 36.5001 108.369 36.1034 107.766C35.657 107.092 35.3801 105.877 35.3843 104.604C35.3843 103.468 35.6818 101.513 36.0496 100.265C36.7109 98.0164 36.7026 97.9627 35.6322 95.6152C35.0371 94.3092 34.5494 92.8214 34.5536 92.309C34.5536 91.7965 34.8305 90.8666 35.1735 90.2426C35.7314 89.2135 35.719 89.0192 35.0495 88.1762C34.6445 87.6637 34.1775 86.3618 34.0163 85.2832C33.7642 83.6053 33.8758 83.0639 34.7726 81.5637C35.3471 80.5966 35.7645 79.3485 35.7025 78.7905C35.6198 78.0797 34.8511 77.2655 33.1773 76.1042C31.8548 75.1867 30.4869 73.8766 30.1356 73.1947C29.7347 72.4095 29.5942 71.4631 29.7512 70.6117C29.929 69.657 31.268 67.9171 34.3593 64.6191C37.7606 60.9946 38.7153 59.7176 38.6988 58.8332C38.6864 57.9653 38.8765 57.6967 39.5088 57.6967C39.9634 57.6967 40.3354 57.6016 40.3354 57.49C40.3354 57.3784 40.0171 56.494 39.6328 55.5269C39.2443 54.5599 38.4921 53.1216 37.9631 52.324C37.4383 51.5264 37.0043 50.5965 37.0085 50.2576C37.0085 49.9187 37.492 48.7078 38.083 47.5713C38.674 46.4347 39.8849 44.389 40.7734 43.0252C41.6661 41.6614 42.8357 39.2437 43.3771 37.6525C43.9185 36.0614 44.7368 34.0156 45.1956 33.1064C45.6543 32.1972 47.3157 29.9655 48.8903 28.1471C50.4649 26.3286 51.9692 24.2374 52.242 23.4976C52.5602 22.6256 52.5892 22.0842 52.3205 21.9478C52.0932 21.8321 52.0271 21.2287 52.1676 20.6047C52.3123 19.9806 52.7338 19.1334 53.0975 18.7201C53.4653 18.311 54.5812 17.5671 55.573 17.067C57.3626 16.1702 57.375 16.1495 57.1229 14.4055C56.8831 12.7606 56.9451 12.6118 58.1065 12.0291C58.8297 11.6654 60.1191 10.2065 61.2061 8.5162C62.5286 6.45806 63.8097 5.09423 65.6488 3.78826C67.0705 2.77985 69.0667 1.63919 70.0916 1.25484C71.1166 0.870489 72.6953 0.407619 73.6045 0.225775C74.5137 0.0480638 77.3199 -0.0676559 84.4325 0.04393ZM65.5331 6.44979C65.2852 6.94986 65.4587 7.02838 66.43 6.86307C67.1904 6.73495 67.5582 6.46632 67.4177 6.13983C67.2978 5.85466 67.4797 5.3422 67.8186 5.0033C68.1616 4.66441 68.3765 4.30486 68.3021 4.20981C68.2277 4.11475 67.645 4.44124 67.0044 4.93305C66.368 5.42485 65.7026 6.1109 65.5331 6.44979ZM172.395 288.721C173.214 292.924 174.044 296.643 174.247 296.987C174.553 297.516 174.747 297.474 175.561 296.705C176.383 295.924 176.545 295.259 176.768 291.746C176.929 289.184 177.355 286.774 177.921 285.208C178.417 283.844 178.921 282.451 179.041 282.108C179.21 281.617 178.582 281.377 176.024 280.955C174.247 280.662 172.375 280.154 171.862 279.819C171.35 279.488 170.833 279.215 170.717 279.215C170.597 279.215 170.589 279.633 170.705 280.145C170.817 280.658 171.577 284.518 172.395 288.721Z" fill="black"/>
</svg>
