<svg width="241" height="482" viewBox="0 0 241 482" fill="none" xmlns="http://www.w3.org/2000/svg">
<path fill-rule="evenodd" clip-rule="evenodd" d="M122.332 2.21448C111.829 6.09681 100.993 14.7916 95.9659 23.3695L93.2406 28.0201L94.0498 44.3947C94.852 60.6034 94.837 60.7892 92.6122 62.7703C90.7202 64.4537 90.3645 65.7915 90.3645 71.2154C90.3645 74.759 90.9799 79.4016 91.7321 81.5306C93.7141 87.1443 98.2096 91.8968 101.537 91.8968C103.897 91.8968 104.443 92.4813 105.506 96.1428C107.021 101.356 106.862 108.916 105.115 114.81C104.05 118.402 103.239 119.391 100.83 120.035C99.1966 120.472 97.4014 121.456 96.841 122.222C95.796 123.651 88.5244 127.863 87.1018 127.863C86.6652 127.863 83.0619 129.724 79.0949 132C75.1289 134.275 70.9841 136.637 69.8852 137.246C68.7863 137.856 65.7684 139.827 63.178 141.624C58.9313 144.572 54.8604 146.897 44.9474 152.035C40.0463 154.576 34.0964 161.924 29.9266 170.585C27.8796 174.837 24.8677 181.013 23.2343 184.31C21.1834 188.448 19.9916 192.78 19.3852 198.296C18.9017 202.692 17.8777 208.312 17.1095 210.785C15.5031 215.959 12.8898 232.943 11.5771 246.751C11.0806 251.971 9.68902 259.838 8.48524 264.234C7.28046 268.63 5.48427 276.273 4.49327 281.218C3.50327 286.163 1.94984 292.87 1.04276 296.123C0.135672 299.375 -0.254932 302.337 0.174634 302.706C0.603201 303.074 3.54523 303.971 6.71203 304.698C9.87783 305.425 12.9677 306.622 13.5781 307.357C14.3933 308.34 14.3643 311.261 13.4722 318.352C11.4942 334.064 14.0017 368.468 17.9367 379.622C18.7619 381.96 19.4362 384.643 19.4362 385.584C19.4362 387.125 23.6739 401.893 25.1794 405.601C25.514 406.425 25.8916 407.774 26.0175 408.598C26.1434 409.422 27.0025 415.042 27.9266 421.086C28.8497 427.13 30.2832 434.548 31.1114 437.571C32.8726 444 33.1004 445.757 33.8966 459.05C34.2252 464.545 35.2592 471.851 36.1932 475.285L37.8925 481.529H107.616C162.516 481.529 177.425 481.263 177.739 480.28C177.959 479.594 179.804 473.637 181.84 467.043C185.238 456.041 187.641 451.557 190.139 451.557C190.665 451.557 191.246 451.221 191.429 450.808C191.612 450.396 193.424 448.818 195.455 447.301C197.544 445.742 200.582 441.844 202.448 438.33L205.748 432.116L206.062 436.478C206.234 438.876 205.897 441.318 205.312 441.903C203.756 443.459 204.015 450.119 205.686 451.505C209.004 454.259 224.959 449.113 230.013 443.658C231.321 442.246 234.203 437.295 236.418 432.654L240.445 424.217L238.819 412.661C236.956 399.432 236.789 393.995 238.215 393.113C238.765 392.773 239.214 389.552 239.214 385.954C239.214 380.436 238.825 378.951 236.717 376.446C234.769 374.13 234.219 372.359 234.219 368.391C234.219 365.594 233.798 360.57 233.282 357.228C232.766 353.887 231.845 343.06 231.233 333.169C229.997 313.178 227.875 296.837 225.508 289.087L223.944 283.969L228.178 280.143C232.164 276.542 232.375 276.081 231.788 272.274C231.444 270.05 230.277 267.013 229.194 265.523C228.112 264.034 227.226 261.925 227.226 260.837C227.226 259.748 226.853 258.626 226.396 258.345C225.94 258.062 224.989 255.226 224.282 252.042C223.575 248.857 222.439 245.127 221.758 243.754C221.076 242.38 219.74 237.659 218.789 233.263C217.837 228.868 216.699 224.349 216.26 223.222C214.39 218.418 213.201 210.017 214.064 207.701C214.599 206.262 214.581 202.672 214.02 198.796C209.845 169.977 200.401 155.515 178.803 144.861C173.214 142.103 166.722 138.205 164.378 136.198C160.523 132.898 160.16 132.204 160.602 128.957C161.566 121.849 163.184 117.612 167.058 112.045C171.413 105.789 175.279 96.3596 175.279 91.9967C175.279 90.3793 176.529 87.6009 178.208 85.4889C181.788 80.9831 182.648 77.4175 181.792 70.6269C180.992 64.2729 178.424 55.9308 177.268 55.9308C176.801 55.9308 176.477 54.4692 176.546 52.6838C176.726 48.0582 174.185 25.8991 173.161 23.1737C172.011 20.1116 159.258 7.88612 155.109 5.86803C141.889 -0.561904 132.632 -1.59393 122.332 2.21448ZM208.625 377.128C209.047 378.227 209.595 381.558 209.845 384.531C210.095 387.504 210.921 390.426 211.68 391.025C212.834 391.934 212.586 393.269 210.183 399.107C207.728 405.072 207.283 407.569 207.16 416.091C207.08 421.586 206.819 425.182 206.579 424.083C206.34 422.984 205.746 421.186 205.258 420.087C204.771 418.988 204.123 411.795 203.818 404.102C203.513 396.409 202.994 384.72 202.664 378.127L202.065 366.138L204.963 370.634C206.556 373.106 208.204 376.029 208.625 377.128Z" fill="#101010"/>
</svg>
