<svg width="292" height="528" viewBox="0 0 292 528" fill="none" xmlns="http://www.w3.org/2000/svg">
<path fill-rule="evenodd" clip-rule="evenodd" d="M138.885 0C138.99 0 139.754 0.213655 140.585 0.47954C141.421 0.740677 143.277 1.08254 144.711 1.23447C146.145 1.3864 147.612 1.76149 147.963 2.06061C148.381 2.42145 149.25 2.48793 150.456 2.25528C151.529 2.05111 153.257 2.12708 154.563 2.4357C155.802 2.73482 157.331 3.21436 157.958 3.50399C158.58 3.79836 159.434 4.05475 159.857 4.07374C160.275 4.09273 160.992 4.14496 161.448 4.19244C161.903 4.23517 162.274 4.53904 162.269 4.86665C162.264 5.19426 162.535 5.71178 162.863 6.02039C163.285 6.40973 163.888 6.44297 164.89 6.12011C166.234 5.69279 166.295 5.72603 165.987 6.75158C165.764 7.50176 165.915 8.05252 166.495 8.54631C166.955 8.93564 167.516 9.68581 167.743 10.2081C167.971 10.7304 168.175 11.4805 168.199 11.8699C168.218 12.264 168.603 12.5298 169.054 12.4634C169.614 12.3826 169.989 12.7957 170.231 13.7596C170.426 14.5335 170.963 15.2836 171.418 15.4213C172.017 15.597 172.216 16.086 172.131 17.1638C172.021 18.517 172.192 18.7212 173.911 19.3241C174.956 19.6897 176.128 20.2927 176.522 20.6631C176.916 21.0382 177.448 21.342 177.709 21.342C177.97 21.3373 178.45 21.8785 178.778 22.5385C179.105 23.1985 179.585 23.7397 179.846 23.7397C180.107 23.7397 180.639 24.5944 181.033 25.6389C181.427 26.6835 181.892 28.7678 182.068 30.2682C182.324 32.4142 182.225 33.2784 181.593 34.3039C181.156 35.0209 180.8 35.8755 180.81 36.2031C180.819 36.5307 180.501 37.4376 180.102 38.221C179.703 39.0044 179.381 40.7137 179.381 42.0193C179.385 43.325 179.195 44.607 178.958 44.8681C178.721 45.1292 178.398 46.9999 178.236 49.0226C177.966 52.4838 178.004 52.7022 178.896 52.7022C179.423 52.7022 179.846 53.0203 179.846 53.4144C179.846 53.8037 180.164 54.2358 180.558 54.364C180.952 54.4922 181.27 55.0287 181.27 55.551C181.27 56.0733 181.004 56.5765 180.677 56.6715C180.349 56.7665 180.24 57.0371 180.43 57.265C180.625 57.5024 181.09 57.4264 181.498 57.0941C182.082 56.6098 182.263 56.6335 182.457 57.2128C182.585 57.6021 182.533 58.0104 182.339 58.1149C182.144 58.2193 181.93 59.9856 181.869 62.0319C181.802 64.0831 181.527 68.0049 181.247 70.7444C180.966 73.484 180.52 77.1209 180.249 78.8159C179.979 80.511 179.11 83.1841 178.317 84.7509C177.524 86.3177 176.299 88.2406 175.592 89.024C174.832 89.8739 174.172 91.3125 173.958 92.585C173.764 93.7625 173.498 95.1489 173.37 95.6712C173.18 96.4451 173.227 96.4878 173.636 95.9086C174.049 95.3198 174.134 95.3815 174.139 96.2647C174.144 96.8534 173.987 97.2475 173.792 97.143C173.598 97.0338 173.436 97.7982 173.436 98.8428C173.436 100.091 173.161 100.922 172.624 101.288C172.178 101.592 171.803 102.109 171.793 102.437C171.784 102.765 171.452 103.14 171.062 103.268C170.587 103.426 170.35 104.138 170.35 105.404C170.35 106.449 170.136 107.413 169.875 107.541C169.614 107.669 169.529 108.367 169.685 109.084C169.946 110.276 169.904 110.328 169.192 109.678C168.631 109.17 168.413 109.136 168.432 109.559C168.441 109.887 168.237 110.043 167.976 109.915C167.715 109.787 167.501 109.891 167.501 110.152C167.501 110.414 167.819 110.627 168.213 110.627C168.603 110.627 168.926 110.736 168.926 110.865C168.926 110.993 168.793 111.477 168.627 111.933C168.375 112.64 168.275 112.659 167.967 112.052C167.767 111.658 167.373 111.501 167.079 111.695C166.789 111.89 166.552 112.583 166.552 113.239C166.552 113.889 166.818 114.497 167.145 114.587C167.615 114.715 167.615 114.881 167.136 115.418C166.699 115.897 166.585 117.483 166.718 121.073C166.841 124.373 167.193 126.78 167.758 128.195C168.223 129.372 168.973 130.863 169.424 131.518C169.87 132.169 170.839 133.028 171.575 133.417C172.311 133.807 173.835 135.036 174.956 136.147C176.081 137.258 177.315 138.165 177.709 138.165C178.103 138.165 180.022 138.911 181.982 139.827C183.939 140.743 185.919 141.494 186.374 141.494C186.83 141.498 188.805 142.215 190.766 143.084C192.722 143.958 195.505 145.401 196.939 146.289C198.372 147.182 200.832 148.364 202.399 148.915C203.965 149.465 207.384 150.614 209.995 151.464C212.607 152.314 216.666 153.91 219.017 155.011C221.367 156.113 223.821 157.143 224.477 157.3C225.127 157.456 227.05 158.477 228.75 159.569C230.45 160.661 233.759 162.997 236.109 164.759C238.459 166.52 241.883 169.535 243.72 171.463C246.189 174.05 248.022 176.69 250.771 181.609C252.812 185.265 255.144 189.324 255.951 190.63C256.758 191.936 258.277 194.604 259.327 196.565C260.376 198.521 261.696 201.835 262.261 203.924C262.826 206.013 265.67 215.737 268.58 225.528C271.491 235.323 274.411 244.937 275.061 246.893C275.716 248.849 277.198 253.232 278.356 256.627C279.51 260.021 280.897 264.826 281.433 267.309C281.97 269.793 283.816 275.88 285.531 280.841C287.249 285.803 288.963 291.144 289.334 292.711C289.709 294.278 290.388 296.576 290.839 297.815C291.636 300.013 291.636 300.099 290.711 300.987C290.188 301.49 287.734 302.544 285.25 303.337C282.767 304.125 278.285 305.412 275.28 306.19C272.274 306.964 268.11 307.961 266.021 308.403C263.932 308.84 261.947 309.443 261.615 309.737C261.121 310.174 261.344 311.209 262.736 315.026C263.685 317.638 265.015 321.484 265.679 323.573C266.819 327.148 266.904 328.093 267.094 339.716C267.208 346.505 267.066 356.12 266.786 361.081C266.505 366.043 265.722 374.908 265.048 380.785C264.369 386.659 263.315 394.137 262.698 397.403C262.08 400.665 260.922 406.439 260.124 410.223C259.327 414.007 258.125 419.671 257.451 422.805C256.777 425.938 255.813 430.743 255.305 433.488C254.797 436.232 254.384 438.953 254.384 439.541C254.389 440.443 254.645 440.61 256.05 440.61C257.171 440.61 258.026 440.956 258.681 441.678C259.213 442.267 259.868 443.601 260.134 444.645C260.4 445.69 260.49 447.826 260.328 449.393C260.167 450.96 259.82 453.738 259.559 455.566C259.298 457.394 258.952 459.53 258.79 460.314C258.629 461.097 257.893 462.431 257.152 463.281C256.084 464.511 255.452 464.824 252.252 464.815L251.587 470.636C251.222 473.836 250.861 478.166 250.785 480.255C250.709 482.344 250.856 486.508 251.117 489.513C251.374 492.519 251.92 497.11 252.328 499.722C252.736 502.333 253.363 506.179 253.715 508.268C254.071 510.357 254.223 512.598 254.052 513.253C253.881 513.904 251.749 516.525 249.318 519.069C246.882 521.614 244.893 523.912 244.893 524.174C244.893 524.435 244.143 525.398 241.569 527.972L39.0692 528L36.5861 523.594C35.2234 521.173 33.3955 517.479 32.5266 515.39C31.653 513.301 30.1811 510.419 29.2552 508.98C28.3294 507.541 27.2991 505.514 26.9715 504.47C26.4729 502.879 26.4967 502.181 27.1139 500.196C27.5175 498.891 28.4054 496.218 29.0843 494.261C29.7633 492.301 30.9645 487.6 31.7527 483.816C32.5456 480.032 33.3052 474.69 33.4524 471.946C33.6376 468.366 33.4619 465.289 32.8304 461.026C32.2417 457.056 32.0138 453.519 32.1515 450.343C32.2654 447.732 32.3556 444.099 32.3461 442.271C32.3414 440.443 32.2132 437.239 32.0613 435.149C31.9093 433.06 31.5675 430.069 31.2969 428.502C31.0262 426.936 30.6844 424.372 30.5324 422.805C30.3853 421.238 30.0529 418.783 29.7965 417.345C29.5401 415.906 28.7092 411.315 27.9543 407.137C27.1994 402.958 26.3495 397.721 26.0646 395.504C25.7797 393.287 25.229 388.582 24.8396 385.059C24.4503 381.536 23.7571 375.126 23.2966 370.815C22.6461 364.699 22.4704 359.121 22.5037 345.413C22.5416 328.197 22.5654 327.751 23.7571 323.098C24.8729 318.73 24.9061 318.307 24.1844 317.809C23.7524 317.51 19.0187 316.057 13.6677 314.575C8.31204 313.089 3.00383 311.518 1.86432 311.076C0.169305 310.426 -0.158305 310.108 0.0601006 309.329C0.207287 308.807 0.819773 306.551 1.41801 304.315C2.021 302.079 2.77118 299.942 3.08929 299.567C3.40741 299.192 3.9819 297.279 4.36174 295.322C4.74632 293.361 5.7244 289.516 6.5363 286.776C7.3482 284.036 8.41174 280.404 8.89603 278.705C9.38032 277.005 10.0023 274.977 10.2729 274.194C10.5483 273.411 11.3317 270.315 12.0154 267.309C12.7039 264.304 14.095 259.285 15.1111 256.152C16.1272 253.018 17.6038 247.781 18.3919 244.519C19.1801 241.253 20.6615 236.234 21.687 233.362C22.7078 230.489 24.5263 224.345 25.7275 219.711C26.9287 215.077 27.9116 210.804 27.9116 210.215C27.9116 209.627 28.8849 206.692 30.0766 203.687C31.2684 200.682 33.0014 196.09 33.9272 193.479C34.8531 190.868 36.9754 185.792 38.6467 182.203C40.3132 178.613 41.6806 175.565 41.6806 175.437C41.6806 175.309 42.4688 173.865 43.4279 172.232C44.3917 170.599 46.3668 168.016 47.8197 166.487C49.2773 164.963 52.6009 162.152 55.2123 160.243C57.8236 158.339 61.6695 156.022 63.7586 155.096C65.8477 154.171 69.2662 152.998 71.3553 152.495C73.4444 151.987 76.9674 151.018 79.1894 150.339C81.5302 149.622 84.8205 148.117 87.0235 146.754C89.2931 145.349 91.8285 144.2 93.3146 143.896C94.6867 143.616 96.0351 143.122 96.3105 142.795C96.5859 142.467 97.2269 141.508 97.7349 140.658C98.2429 139.808 99.5106 138.688 100.555 138.165C101.87 137.51 103.404 137.216 105.541 137.216C108.152 137.216 108.793 137.045 109.695 136.105C110.284 135.497 111.352 133.251 112.069 131.119C112.786 128.988 113.375 126.286 113.375 125.108C113.375 123.632 113.156 122.901 112.662 122.734C112.268 122.606 112.059 122.283 112.188 122.022C112.316 121.761 112.107 121.172 111.718 120.717C111.328 120.261 110.887 119.031 110.73 117.987C110.578 116.942 110.227 115.66 109.956 115.138C109.69 114.615 109.581 113.652 109.723 113.001C109.866 112.346 109.89 111.548 109.776 111.221C109.667 110.893 109.253 110.627 108.864 110.627C108.356 110.627 108.218 110.285 108.389 109.44C108.517 108.785 108.413 108.253 108.152 108.253C107.891 108.253 107.549 107.024 107.387 105.523C107.231 104.023 106.803 102.314 106.438 101.725C106.077 101.136 105.688 100.177 105.574 99.5882C105.465 98.9995 105.36 98.254 105.336 97.9264C105.317 97.5988 105.089 97.4421 104.828 97.5703C104.567 97.6985 104.259 97.4326 104.14 96.9768C104.021 96.521 104.002 95.4005 104.092 94.4842C104.187 93.5678 104.187 92.4995 104.097 92.1102C104.002 91.7209 103.333 91.1369 102.597 90.814C101.866 90.4911 101.02 89.741 100.717 89.1522C100.413 88.5587 99.5106 86.6833 98.7082 84.9883C97.4928 82.4006 97.1367 80.7863 96.5289 75.0176C96.1253 71.2287 95.7977 67.174 95.7977 65.9965C95.793 64.819 96.0351 63.1145 96.3343 62.1981C96.6334 61.2818 97.1177 60.3227 97.412 60.0615C97.7064 59.8004 97.9438 59.3209 97.9438 58.9933C97.9438 58.6656 98.1575 58.414 98.4186 58.433C98.6797 58.452 99.0358 58.0817 99.2068 57.6021C99.3777 57.1273 99.4157 52.3556 99.2922 47.0047C99.1688 41.649 98.9599 36.7349 98.8269 36.0844C98.694 35.4292 98.4661 33.9336 98.3284 32.7608C98.129 31.137 98.2572 30.4533 98.8602 29.9121C99.2922 29.5227 99.6341 28.6634 99.6198 28.0129C99.6008 27.3577 99.9047 26.3986 100.294 25.8763C100.683 25.354 101.006 24.6039 101.02 24.2145C101.03 23.8252 102.317 22.2204 103.874 20.6536C105.749 18.7734 106.756 17.3632 106.837 16.4991C106.917 15.6967 107.24 15.1982 107.677 15.2124C108.261 15.2314 108.28 15.1032 107.796 14.5002C107.321 13.9162 107.321 13.6456 107.796 13.1566C108.123 12.8195 108.631 12.1215 108.921 11.6135C109.215 11.1007 110.099 10.36 110.877 9.97069C111.661 9.58136 112.492 8.83118 112.719 8.30891C113.042 7.58247 113.664 7.33083 115.393 7.24062C117.524 7.12667 117.634 7.05545 117.41 5.93494C117.225 5.00909 117.553 4.4061 118.882 3.20487C119.822 2.35498 121.37 1.3864 122.325 1.0493C123.516 0.626732 126.227 0.479546 131.023 0.574505C134.85 0.650472 138.145 0.550762 138.339 0.356096C138.539 0.16143 138.781 0 138.885 0ZM228.085 409.401C227.672 412.597 227.022 416.704 226.642 418.532C226.262 420.36 225.816 425.487 225.649 429.927C225.483 434.366 225.512 439.28 225.721 440.847C225.925 442.414 226.371 443.962 226.713 444.289C227.05 444.617 227.701 444.774 228.156 444.641C228.612 444.508 229.714 443.705 230.597 442.86L232.206 441.322C231.708 426.974 231.461 421.418 231.333 419.719C231.209 418.019 230.877 413.746 230.597 410.223C230.317 406.7 229.923 403.495 229.723 403.101C229.443 402.56 229.296 402.536 229.096 402.992C228.954 403.324 228.498 406.206 228.085 409.401ZM54.4574 436.574C54.144 439.969 54.0253 443.549 54.1962 444.527C54.3624 445.505 54.766 446.307 55.0936 446.312C55.4734 446.312 55.8485 445.077 56.1334 442.87C56.3755 440.975 56.5892 436.555 56.6082 433.051C56.6272 429.063 56.4515 426.617 56.1429 426.508C55.8722 426.409 55.5114 427.249 55.3405 428.365C55.1695 429.485 54.7707 433.179 54.4574 436.574ZM226.01 456.786C225.692 458.467 225.431 462.35 225.431 465.418C225.426 468.485 225.588 471.096 225.782 471.215C225.977 471.334 226.604 470.64 227.169 469.672C227.734 468.703 228.66 465.987 229.225 463.637C229.79 461.287 230.393 458.348 230.568 457.104C230.844 455.143 230.777 454.844 230.055 454.849C229.6 454.849 228.959 454.426 228.631 453.904C228.303 453.377 227.781 452.95 227.468 452.954C227.154 452.954 226.827 453.13 226.741 453.344C226.656 453.562 226.328 455.11 226.01 456.786ZM55.6871 458.889C55.8153 459.283 56.1381 459.601 56.3993 459.601C56.6604 459.601 56.8646 458.875 56.8503 457.992C56.8408 457.014 56.5512 456.273 56.1191 456.107C55.6016 455.908 55.4117 456.154 55.4259 457.004C55.4402 457.65 55.5589 458.495 55.6871 458.889ZM49.4388 506.25C49.6144 506.706 50.2317 507.323 50.8204 507.617C51.4092 507.912 52.2638 508.016 52.7196 507.855C53.3748 507.617 53.5268 507.09 53.4318 505.338C53.3653 504.118 53.0709 503.036 52.7718 502.936C52.4727 502.836 51.5326 503.354 50.678 504.085C49.5955 505.02 49.2251 505.666 49.4388 506.25Z" fill="#0D0D0D"/>
</svg>
